<svg xmlns="http://www.w3.org/2000/svg" width="384" height="384" viewBox="0 0 384 384">
<g>
<path d="M 50.00 382.40 C31.72,378.47 14.14,364.15 5.92,346.50 C-0.14,333.49 -0.01,336.83 0.09,203.29 C0.18,77.24 0.88,49.46 2.95,90.50 C3.65,104.45 3.65,104.42 3.85,82.00 C4.03,61.15 4.41,56.48 6.45,50.12 C6.98,48.47 6.87,47.96 6.09,48.44 C5.47,48.83 6.10,47.47 7.48,45.43 C8.87,43.39 10.00,41.32 10.00,40.84 C10.00,40.35 11.82,37.07 14.04,33.55 C21.89,21.13 35.73,10.84 50.50,6.44 C56.11,4.77 65.05,4.64 189.50,4.46 C296.73,4.30 323.82,4.52 329.33,5.59 C349.78,9.58 368.84,25.70 375.59,44.71 C376.61,47.57 377.73,49.44 378.08,48.87 C378.43,48.30 378.78,49.11 378.86,50.67 C378.93,52.22 379.36,62.72 379.81,74.00 C380.26,85.28 380.71,91.49 380.81,87.81 C381.00,81.28 382.18,78.42 383.40,81.59 C383.73,82.45 384.00,137.91 383.99,204.83 C383.99,323.31 383.93,326.72 381.97,334.90 C379.81,343.90 375.64,352.68 370.94,358.12 L 368.02 361.50 L 365.97 359.10 L 363.93 356.69 L 360.72 359.60 C358.95,361.19 357.32,362.61 357.08,362.75 C356.85,362.89 357.75,364.17 359.08,365.60 L 361.50 368.19 L 358.00 371.15 C352.70,375.62 341.37,380.80 333.18,382.49 C322.66,384.66 60.12,384.58 50.00,382.40 ZM 163.00 327.00 C163.00,322.60 163.34,319.01 163.75,319.03 C164.16,319.05 165.37,319.72 166.44,320.53 C169.49,322.84 178.72,322.40 183.50,319.73 C190.61,315.75 194.20,303.97 190.94,295.32 C187.38,285.87 175.58,281.37 166.50,286.00 C161.81,288.39 162.00,288.37 162.00,286.50 C162.00,285.39 160.83,285.00 157.50,285.00 L 153.00 285.00 L 153.00 310.00 L 153.00 335.00 L 158.00 335.00 L 163.00 335.00 L 163.00 327.00 ZM 226.00 327.00 C226.00,322.60 226.34,319.02 226.75,319.04 C227.16,319.05 228.62,319.71 230.00,320.50 C233.27,322.37 242.34,322.39 245.93,320.54 C253.16,316.80 257.13,307.42 255.15,298.81 C253.63,292.23 250.96,288.64 245.68,286.09 C240.25,283.46 234.54,283.43 229.74,286.00 C226.63,287.66 226.00,287.75 226.00,286.50 C226.00,285.38 224.81,285.00 221.25,285.00 L 216.50 285.00 L 216.78 310.00 L 217.07 335.00 L 221.53 335.00 L 226.00 335.00 L 226.00 327.00 ZM 112.05 312.25 C117.12,296.89 116.68,296.99 121.40,310.06 L 125.52 321.50 L 130.38 321.50 L 135.23 321.50 L 140.97 305.50 C144.13,296.70 147.03,288.49 147.42,287.25 C148.09,285.13 147.86,285.00 143.23,285.00 L 138.33 285.00 L 134.55 297.09 C132.48,303.74 130.44,308.80 130.01,308.34 C129.59,307.88 127.58,302.44 125.54,296.25 L 121.83 285.00 L 117.14 285.00 L 112.44 285.00 L 108.67 297.12 C106.60,303.78 104.60,308.94 104.24,308.57 C103.88,308.21 101.97,302.87 100.00,296.71 L 96.41 285.50 L 91.23 285.20 L 86.05 284.90 L 89.36 294.20 C91.19,299.31 94.16,307.66 95.96,312.75 L 99.25 322.00 L 104.04 322.00 L 108.84 322.00 L 112.05 312.25 ZM 208.00 303.50 L 208.00 285.00 L 203.00 285.00 L 198.00 285.00 L 198.00 301.92 C198.00,311.22 198.27,319.55 198.61,320.42 C199.03,321.53 200.52,322.00 203.61,322.00 L 208.00 322.00 L 208.00 303.50 ZM 291.11 319.82 C295.64,317.27 295.88,316.18 292.57,313.07 C290.29,310.92 290.00,310.88 287.85,312.39 C283.54,315.41 274.40,314.14 271.28,310.09 C268.41,306.35 269.49,306.00 284.00,306.00 L 298.00 306.00 L 298.00 302.21 C298.00,297.14 294.26,290.02 290.18,287.31 C283.67,282.99 273.56,283.34 266.84,288.12 C261.34,292.03 258.31,303.42 260.93,310.32 C262.45,314.32 267.97,319.93 271.35,320.91 C277.52,322.69 286.92,322.17 291.11,319.82 ZM 207.43 278.43 C209.44,276.41 209.44,272.59 207.43,270.57 C204.10,267.24 197.00,269.80 197.00,274.33 C197.00,279.16 203.96,281.90 207.43,278.43 ZM 176.64 227.64 C180.79,219.47 183.80,212.45 183.34,212.05 C182.88,211.65 179.05,209.83 174.84,208.02 C170.62,206.20 166.01,203.63 164.59,202.32 C162.19,200.09 162.00,199.29 162.00,191.26 C162.00,186.13 161.64,182.99 161.11,183.55 C160.28,184.42 149.30,208.37 145.61,217.34 C144.74,219.45 143.52,221.01 142.91,220.80 C142.29,220.60 136.11,207.22 129.18,191.08 C115.59,159.45 112.51,154.46 103.61,149.70 C99.81,147.67 97.89,147.48 78.25,147.18 C53.99,146.81 49.15,148.34 71.00,149.46 C83.89,150.13 86.74,150.81 83.95,152.53 C83.22,152.98 83.23,153.57 83.98,154.47 C85.57,156.39 83.03,157.07 71.50,157.83 L 61.50 158.49 L 75.53 159.03 C96.26,159.82 96.53,160.06 108.33,187.50 C111.88,195.75 116.24,205.65 118.01,209.50 C119.79,213.35 122.77,219.84 124.64,223.92 C128.20,231.68 133.63,238.02 136.70,237.98 C137.85,237.96 137.12,237.15 134.69,235.75 C130.67,233.41 127.64,228.17 122.71,215.00 C121.37,211.43 119.99,207.82 119.63,207.00 C119.09,205.76 119.92,205.52 124.43,205.65 C127.43,205.74 130.71,206.41 131.72,207.15 C132.73,207.89 135.19,211.65 137.20,215.50 C141.75,224.23 143.76,224.88 147.40,218.81 C148.82,216.44 149.99,214.95 150.01,215.50 C150.02,216.05 150.46,215.83 150.97,215.01 C151.72,213.82 152.17,213.77 153.15,214.75 C154.13,215.73 154.06,217.02 152.79,220.99 C151.90,223.75 151.32,226.00 151.50,226.00 C151.67,226.00 152.98,224.00 154.42,221.55 C157.45,216.38 159.02,215.05 158.32,218.25 C157.91,220.11 158.03,220.24 158.98,219.00 C160.78,216.65 159.25,221.49 156.13,228.00 C153.17,234.18 148.04,237.86 142.00,238.12 C139.28,238.24 139.05,238.37 140.96,238.73 C144.59,239.41 151.10,237.19 154.34,234.16 C155.91,232.70 158.23,229.48 159.51,227.00 C163.08,220.11 164.77,218.21 165.87,219.88 C166.37,220.64 167.20,220.99 167.72,220.67 C168.24,220.35 168.71,220.86 168.77,221.79 C168.99,225.44 167.93,227.79 165.76,228.44 C163.81,229.02 163.73,229.21 165.21,229.81 C167.14,230.59 166.48,232.11 163.50,233.81 C162.40,234.43 161.98,234.95 162.56,234.97 C164.46,235.02 167.06,232.53 169.33,228.48 C170.56,226.29 171.95,224.65 172.42,224.84 C172.89,225.02 173.66,224.57 174.12,223.84 C176.04,220.80 174.72,225.14 170.55,235.50 C165.02,249.25 166.93,246.78 176.64,227.64 ZM 225.00 243.94 C225.00,243.42 223.54,243.06 221.75,243.14 C219.40,243.23 219.12,243.39 220.75,243.71 C221.99,243.94 223.00,244.58 223.00,245.13 C223.00,245.67 223.45,245.84 224.00,245.50 C224.55,245.16 225.00,244.46 225.00,243.94 ZM 237.43 242.88 C237.12,242.38 236.04,242.44 234.94,243.03 C232.32,244.43 232.50,244.82 235.49,244.25 C236.86,243.99 237.73,243.37 237.43,242.88 ZM 203.85 234.60 C201.07,227.79 200.88,226.70 202.18,225.40 C203.48,224.10 204.16,224.87 207.95,231.90 C210.31,236.29 212.95,240.15 213.81,240.48 C215.22,241.02 215.22,240.89 213.78,239.29 C211.67,236.94 207.11,226.52 206.47,222.60 C206.16,220.69 206.29,220.00 206.82,220.80 C207.50,221.83 207.94,221.77 209.00,220.50 C210.15,219.11 210.83,219.79 214.42,225.98 C218.35,232.74 222.80,236.98 225.98,236.99 C226.80,237.00 225.75,235.84 223.66,234.42 C219.63,231.68 215.60,224.21 216.66,221.45 C217.18,220.09 217.47,220.11 219.12,221.61 C220.90,223.22 221.00,223.20 221.00,221.17 C221.00,219.99 221.75,218.15 222.66,217.08 C224.29,215.18 224.40,215.22 227.25,218.82 C228.86,220.84 230.92,222.50 231.82,222.50 C232.92,222.50 235.21,218.92 238.72,211.75 C241.61,205.84 244.45,201.00 245.04,201.00 C245.63,201.00 245.79,200.47 245.39,199.83 C244.90,199.03 245.23,198.87 246.45,199.34 C247.79,199.85 248.07,199.64 247.62,198.46 C247.29,197.60 247.40,197.13 247.86,197.42 C248.33,197.70 250.12,197.40 251.84,196.75 C257.72,194.53 257.82,196.51 252.53,210.70 C246.74,226.21 245.08,229.11 240.52,231.56 C236.35,233.81 235.82,235.40 239.75,233.91 C246.04,231.52 247.84,228.13 265.49,185.50 C281.68,146.42 282.56,144.45 285.55,140.53 C287.07,138.53 290.38,135.69 292.91,134.20 C297.28,131.63 298.24,131.48 313.25,131.16 C321.91,130.98 329.00,131.14 329.00,131.52 C329.00,131.90 327.88,133.10 326.50,134.18 C324.13,136.04 323.08,139.00 324.79,139.00 C326.39,139.00 335.48,128.91 334.50,128.21 C333.95,127.82 332.61,126.38 331.53,125.00 C330.44,123.62 330.16,123.03 330.90,123.67 C331.64,124.32 332.94,124.58 333.79,124.25 C334.90,123.82 335.11,124.05 334.52,125.08 C333.88,126.19 333.99,126.24 334.98,125.33 C335.67,124.68 336.86,124.39 337.62,124.69 C338.38,124.98 339.00,124.69 339.00,124.06 C339.00,123.43 340.80,124.35 343.00,126.12 C345.20,127.89 347.00,129.62 347.00,129.98 C347.00,131.02 317.28,157.95 316.74,157.40 C316.46,157.13 316.48,153.94 316.77,150.33 L 317.29 143.75 L 310.75 144.16 C305.70,144.49 303.32,145.20 300.27,147.31 C296.06,150.23 295.33,151.59 285.91,174.00 C283.02,180.88 280.50,186.70 280.30,186.94 C280.11,187.18 279.24,186.67 278.38,185.81 C277.23,184.66 277.07,183.73 277.78,182.37 C279.01,180.00 277.79,175.91 276.48,178.03 C275.26,180.01 275.84,186.11 277.50,188.64 C279.02,190.96 278.94,191.24 272.59,206.97 C268.69,216.63 270.03,216.56 274.18,206.88 C276.16,202.27 282.12,188.38 287.42,176.00 C298.33,150.56 300.32,147.78 308.45,146.56 C311.09,146.16 313.61,146.21 314.07,146.67 C314.53,147.13 315.03,150.56 315.20,154.30 L 315.50 161.11 L 333.25 145.49 C343.01,136.90 351.00,129.68 351.00,129.44 C351.00,128.74 315.56,98.01 314.75,98.00 C314.34,98.00 314.00,101.54 314.00,105.86 L 314.00 113.73 L 305.25 113.91 C300.44,114.01 294.70,114.56 292.51,115.15 C283.86,117.44 276.23,122.88 271.08,130.41 C268.72,133.87 242.51,194.97 234.91,214.75 C233.59,218.19 232.06,220.85 231.51,220.67 C230.97,220.49 226.92,212.42 222.51,202.75 C218.10,193.07 214.16,184.82 213.75,184.41 C213.34,184.00 213.00,187.26 213.00,191.65 C213.00,199.06 212.80,199.81 210.25,202.20 C208.74,203.62 204.12,206.23 200.00,208.00 C195.88,209.77 192.10,211.59 191.61,212.05 C191.10,212.52 192.30,216.23 194.41,220.69 C198.61,229.57 206.19,243.15 206.67,242.66 C206.85,242.48 205.58,238.86 203.85,234.60 ZM 160.64 234.26 C160.74,233.57 160.65,233.00 160.44,233.00 C159.93,233.00 157.00,238.68 157.00,239.67 C157.00,240.82 160.42,235.72 160.64,234.26 ZM 257.81 226.47 C257.50,226.17 256.94,226.72 256.56,227.71 C256.02,229.13 256.14,229.25 257.12,228.27 C257.81,227.59 258.11,226.78 257.81,226.47 ZM 115.53 223.96 C116.46,222.44 113.92,219.68 112.71,220.89 C111.59,222.01 112.46,225.00 113.91,225.00 C114.44,225.00 115.17,224.53 115.53,223.96 ZM 268.95 205.00 C270.06,205.00 270.41,201.74 269.40,200.74 C268.28,199.61 266.00,201.21 266.00,203.11 C266.00,204.16 264.20,209.34 262.00,214.62 C259.80,219.91 258.03,224.52 258.08,224.87 C258.12,225.21 260.35,220.89 263.03,215.25 C265.70,209.61 268.37,205.00 268.95,205.00 ZM 119.00 219.62 C119.00,219.41 118.21,218.63 117.25,217.87 C115.66,216.63 115.63,216.66 116.87,218.25 C118.18,219.92 119.00,220.45 119.00,219.62 ZM 99.92 204.39 C87.66,175.99 85.08,171.64 78.50,168.30 C76.07,167.06 76.34,167.50 79.93,170.62 C83.38,173.61 85.55,177.02 89.76,185.98 C102.20,212.54 104.36,216.97 104.70,216.64 C104.89,216.44 102.74,210.93 99.92,204.39 ZM 108.81 206.47 C108.50,206.17 107.94,206.72 107.56,207.71 C107.02,209.13 107.14,209.25 108.12,208.27 C108.81,207.59 109.11,206.78 108.81,206.47 ZM 195.52 205.99 C203.20,202.94 207.90,200.38 209.23,198.52 C210.01,197.44 210.31,189.00 209.57,189.00 C209.33,189.00 205.39,190.90 200.82,193.22 C189.65,198.88 186.14,198.88 174.77,193.25 C170.06,190.91 165.93,189.00 165.60,189.00 C164.85,189.00 164.84,194.80 165.59,197.58 C165.97,198.99 168.92,200.98 174.82,203.78 C183.08,207.70 185.59,208.74 187.22,208.92 C187.62,208.96 191.36,207.65 195.52,205.99 ZM 110.67 199.34 C109.44,198.10 108.31,200.15 108.80,202.73 L 109.33 205.50 L 110.27 202.69 C110.79,201.14 110.97,199.63 110.67,199.34 ZM 100.53 194.28 C98.47,189.45 96.36,185.05 95.84,184.50 C94.88,183.49 96.63,188.19 99.93,195.50 C100.93,197.70 102.06,200.55 102.46,201.83 C102.86,203.10 103.43,203.91 103.72,203.61 C104.02,203.31 102.58,199.11 100.53,194.28 ZM 102.89 188.06 C101.10,184.19 99.43,181.24 99.18,181.49 C98.93,181.73 100.25,185.32 102.11,189.46 C103.98,193.60 105.64,196.56 105.82,196.03 C106.00,195.51 104.68,191.92 102.89,188.06 ZM 198.66 192.46 C202.94,190.51 207.24,188.19 208.22,187.30 C210.04,185.66 210.76,178.59 209.21,177.63 C208.77,177.36 206.41,178.38 203.96,179.89 C191.95,187.28 186.78,187.60 174.72,181.69 C169.89,179.33 165.73,177.60 165.47,177.86 C164.32,179.01 165.16,184.97 166.75,186.90 C169.02,189.66 183.57,195.97 187.69,195.99 C189.45,195.99 194.39,194.41 198.66,192.46 ZM 272.50 194.00 C272.84,193.45 272.19,193.00 271.06,193.00 C269.93,193.00 269.00,193.45 269.00,194.00 C269.00,194.55 269.65,195.00 270.44,195.00 C271.23,195.00 272.16,194.55 272.50,194.00 ZM 157.98 181.80 C161.00,175.64 162.00,172.38 162.00,168.73 C162.00,162.72 163.07,160.63 166.96,159.02 L 170.00 157.76 L 170.00 146.83 C170.00,138.69 170.42,135.08 171.63,132.70 C173.63,128.79 183.04,117.00 184.16,117.00 C185.65,117.00 193.84,128.27 196.83,134.42 C202.05,145.19 202.71,147.05 202.22,149.60 L 201.75 152.11 L 199.87 149.03 C198.84,147.34 197.99,145.18 197.98,144.23 C197.98,143.28 197.53,141.82 197.00,141.00 C196.32,139.95 196.03,141.61 196.02,146.50 L 196.00 153.50 L 203.68 157.00 C207.90,158.93 211.62,160.61 211.93,160.75 C212.24,160.89 212.38,139.63 212.23,113.50 L 211.96 66.00 L 207.48 66.00 L 203.00 66.00 L 202.90 103.25 C202.82,130.63 202.52,139.64 201.75,137.25 C201.18,135.46 200.37,134.00 199.95,134.00 C199.54,134.00 198.27,132.43 197.13,130.50 C196.00,128.57 195.49,127.00 196.00,127.00 C196.52,127.00 196.68,126.32 196.36,125.50 C196.05,124.68 196.32,124.00 196.98,124.00 C197.63,124.00 196.85,122.31 195.23,120.25 C188.69,111.91 188.71,109.27 195.37,101.16 C197.73,98.28 199.72,95.38 199.79,94.71 C199.85,94.04 200.20,87.65 200.56,80.50 L 201.22 67.50 L 198.61 69.92 C196.34,72.03 196.00,73.14 196.04,78.42 C196.07,83.98 196.18,84.30 197.38,82.13 C198.55,80.02 198.77,79.96 199.37,81.53 C199.85,82.78 197.99,85.98 192.86,92.69 C188.90,97.86 185.21,102.37 184.64,102.72 C184.08,103.07 180.96,100.46 177.71,96.93 C174.45,93.39 172.12,91.40 172.53,92.50 C172.94,93.60 173.32,95.87 173.39,97.54 C173.45,99.21 174.58,102.62 175.90,105.11 C178.73,110.45 178.38,112.99 174.05,118.43 C171.45,121.70 171.25,122.39 172.49,123.63 C173.73,124.88 173.70,125.51 172.21,128.43 C171.27,130.28 170.37,131.68 170.21,131.52 C170.05,131.37 169.94,116.57 169.97,98.63 L 170.03 66.00 L 164.98 66.00 L 159.93 66.00 L 160.00 100.75 C160.13,164.82 160.02,172.58 159.00,171.00 C158.47,170.18 158.02,167.05 158.02,164.05 C158.00,158.59 156.62,157.96 155.72,163.00 C155.47,164.38 155.21,161.34 155.14,156.25 C155.06,150.84 154.58,147.00 154.00,147.00 C153.36,147.00 153.00,154.83 153.00,168.50 C153.00,180.32 153.22,190.00 153.48,190.00 C153.74,190.00 155.77,186.31 157.98,181.80 ZM 219.90 182.92 C217.03,174.14 216.41,173.13 215.55,175.84 C215.07,177.34 215.87,179.82 218.14,183.96 C219.94,187.24 221.55,189.79 221.71,189.62 C221.87,189.46 221.06,186.45 219.90,182.92 ZM 200.38 180.06 C209.86,175.53 211.05,173.82 209.39,167.13 C208.63,164.07 207.69,163.15 203.00,160.93 C199.98,159.50 195.16,157.50 192.30,156.49 L 187.11 154.64 L 180.30 157.33 C168.54,161.99 165.55,164.08 165.18,167.91 C164.49,175.02 166.37,176.90 179.78,182.59 C186.90,185.61 189.40,185.30 200.38,180.06 ZM 284.04 166.46 C284.94,165.36 285.01,164.61 284.24,163.84 C282.81,162.41 281.00,163.65 281.00,166.06 C281.00,168.39 282.29,168.56 284.04,166.46 ZM 149.74 164.75 C149.50,164.04 147.84,163.55 145.91,163.62 C144.03,163.69 138.00,163.87 132.50,164.02 C119.96,164.35 125.45,165.64 140.33,165.86 C147.81,165.97 150.07,165.70 149.74,164.75 ZM 246.50 165.08 C248.50,164.63 245.50,164.15 237.50,163.65 C220.08,162.55 220.55,161.00 238.30,161.00 C250.70,161.00 253.00,160.77 253.00,159.50 C253.00,158.22 250.23,158.00 234.06,158.00 L 215.13 158.00 L 215.18 162.00 L 215.24 166.00 L 229.37 165.88 C237.14,165.82 244.85,165.46 246.50,165.08 ZM 150.00 159.50 C150.00,158.23 147.61,158.00 134.50,158.00 C120.34,158.00 117.74,158.41 119.67,160.33 C120.03,160.70 127.01,161.00 135.17,161.00 C147.69,161.00 150.00,160.77 150.00,159.50 ZM 72.68 152.81 C72.36,152.01 72.13,152.25 72.08,153.42 C72.04,154.47 72.27,155.06 72.60,154.73 C72.94,154.40 72.97,153.53 72.68,152.81 ZM 180.52 152.89 C183.82,151.43 186.49,150.94 189.15,151.29 C191.27,151.58 193.00,151.44 193.00,150.99 C193.00,148.80 191.60,147.00 189.89,147.00 C188.85,147.00 188.00,146.50 188.00,145.89 C188.00,144.05 181.02,145.89 177.33,148.70 C175.50,150.09 174.00,152.08 174.00,153.12 C174.00,155.50 174.67,155.48 180.52,152.89 ZM 139.44 137.50 C146.04,126.45 151.31,116.19 153.97,109.25 C157.12,101.00 154.81,103.12 150.70,112.25 C146.89,120.69 136.67,139.16 130.37,149.00 L 126.84 154.50 L 130.45 150.50 C132.44,148.30 136.49,142.45 139.44,137.50 ZM 144.52 148.25 C149.05,138.46 156.13,118.88 155.75,117.15 C155.55,116.18 154.85,117.15 154.07,119.50 C153.34,121.70 150.10,130.21 146.87,138.41 C143.64,146.61 141.00,153.47 141.00,153.66 C141.00,155.07 142.25,153.15 144.52,148.25 ZM 219.20 147.39 C217.76,143.75 216.43,141.21 216.25,141.75 C215.78,143.15 219.98,154.00 220.98,154.00 C221.44,154.00 220.64,151.02 219.20,147.39 ZM 230.26 145.35 C227.57,141.03 223.71,134.48 221.66,130.79 C217.75,123.73 215.25,120.90 217.01,125.53 C219.23,131.37 233.76,154.58 234.64,153.70 C234.91,153.42 232.94,149.66 230.26,145.35 ZM 249.40 151.78 C248.36,150.56 245.86,147.75 243.85,145.53 C237.03,137.99 231.34,130.52 223.67,119.01 C219.45,112.69 216.00,108.10 216.00,108.81 C216.00,113.69 234.11,138.35 246.29,150.05 C250.80,154.38 252.40,155.27 249.40,151.78 ZM 131.25 134.00 C142.79,119.79 156.59,96.71 155.40,93.61 C154.95,92.43 154.01,93.59 152.03,97.73 C145.88,110.68 130.05,134.04 120.31,144.53 C114.31,151.01 113.83,152.25 119.36,147.00 C122.55,143.98 127.90,138.12 131.25,134.00 ZM 105.14 142.52 C106.99,142.47 126.07,125.35 132.90,117.61 C142.17,107.10 155.90,86.95 155.98,83.75 C156.03,81.64 154.11,83.60 151.08,88.75 C141.84,104.42 125.77,123.65 113.06,134.24 C103.17,142.48 100.66,144.77 103.00,143.41 C103.82,142.92 104.79,142.52 105.14,142.52 ZM 259.92 142.63 C259.69,142.43 256.12,139.47 252.00,136.06 C243.32,128.88 231.44,116.05 222.79,104.53 C217.23,97.13 215.00,94.83 215.00,96.48 C215.00,99.18 225.04,112.32 235.05,122.72 C243.19,131.18 257.28,143.00 259.23,143.00 C259.84,143.00 260.15,142.83 259.92,142.63 ZM 157.64 90.04 C157.57,87.27 157.28,86.54 156.68,87.61 C155.92,88.97 156.48,94.00 157.39,94.00 C157.58,94.00 157.70,92.22 157.64,90.04 ZM 157.55 69.22 C157.26,68.92 156.10,69.73 154.99,71.01 C152.66,73.69 152.50,81.40 154.79,80.53 C155.50,80.26 156.40,80.81 156.79,81.77 C157.20,82.76 157.63,80.59 157.80,76.63 C157.96,72.85 157.85,69.52 157.55,69.22 ZM 216.00 23.38 C216.00,23.17 214.85,23.00 213.44,23.00 C212.03,23.00 211.13,23.41 211.44,23.91 C211.95,24.74 216.00,24.27 216.00,23.38 ZM 168.02 312.72 C162.61,309.98 161.27,301.21 165.49,296.20 C168.48,292.65 172.37,291.71 176.67,293.51 C180.68,295.18 182.00,297.66 182.00,303.51 C182.00,311.66 175.01,316.25 168.02,312.72 ZM 230.11 311.44 C224.09,306.37 225.33,296.43 232.35,293.50 C240.84,289.95 248.14,297.99 245.02,307.45 C242.88,313.92 235.43,315.91 230.11,311.44 ZM 270.00 298.45 C270.00,295.41 274.66,292.00 278.82,292.00 C283.31,292.00 288.00,295.10 288.00,298.07 C288.00,299.83 287.22,300.00 279.00,300.00 C271.55,300.00 270.00,299.73 270.00,298.45 ZM 193.18 201.85 C193.55,199.38 197.29,196.38 201.13,195.47 C203.51,194.90 203.71,195.08 203.27,197.36 C202.93,199.14 201.50,200.48 198.41,201.94 C192.97,204.50 192.79,204.49 193.18,201.85 ZM 195.76 190.34 C196.45,190.06 196.76,189.42 196.45,188.91 C196.14,188.41 196.39,188.00 197.00,188.00 C197.61,188.00 197.85,187.57 197.53,187.05 C197.21,186.53 197.86,185.61 198.97,185.01 C200.76,184.06 201.00,184.23 201.00,186.43 C201.00,188.90 198.48,191.08 195.82,190.92 C194.80,190.86 194.79,190.73 195.76,190.34 Z" fill="rgba(0,0,0,1)"/>
</g>
</svg>