<?xml version="1.0" standalone="no"?>
<!DOCTYPE svg PUBLIC "-//W3C//DTD SVG 20010904//EN"
 "http://www.w3.org/TR/2001/REC-SVG-20010904/DTD/svg10.dtd">
<svg version="1.0" xmlns="http://www.w3.org/2000/svg"
 width="2048.000000pt" height="2048.000000pt" viewBox="0 0 2048.000000 2048.000000"
 preserveAspectRatio="xMidYMid meet">

<g transform="translate(0.000000,2048.000000) scale(0.100000,-0.100000)"
fill="#000000" stroke="none">
<path d="M3225 20219 c-742 -85 -1436 -417 -1965 -939 -543 -536 -866 -1171
-987 -1940 l-27 -175 -4 -1285 c-2 -707 -8 -1276 -12 -1265 -8 19 -9 19 -9 -3
-1 -13 -5 -20 -11 -17 -5 3 -10 1 -10 -4 0 -6 5 -11 10 -11 6 0 10 -9 10 -20
0 -11 -7 -20 -16 -20 -8 0 -12 -4 -9 -10 4 -6 -1 -7 -12 -4 -13 4 -11 0 7 -16
22 -19 22 -20 3 -11 -28 14 -30 14 -37 -5 -5 -12 -2 -15 12 -12 14 4 18 0 17
-15 -1 -12 -7 -23 -13 -25 -7 -2 -10 2 -9 10 2 7 2 10 0 6 -7 -12 -43 11 -43
28 0 8 4 12 10 9 16 -10 11 12 -7 30 -9 9 -12 20 -7 23 11 8 13 63 3 56 -4 -2
-11 1 -14 7 -4 5 -14 8 -23 4 -11 -4 -9 1 6 18 13 13 22 28 21 33 -1 5 0 14 1
19 6 21 5 123 -1 119 -4 -2 -10 3 -13 12 -3 8 -2 12 3 9 6 -3 9 7 9 23 -1 22
-6 28 -24 30 -13 1 -24 -3 -24 -9 0 -5 4 -8 9 -5 5 3 12 -2 15 -11 4 -10 4
-14 0 -10 -4 4 -14 1 -22 -6 -11 -8 -14 -8 -9 0 9 14 -9 27 -23 18 -8 -5 -7
-11 1 -21 7 -9 8 -14 3 -13 -30 5 -34 -3 -34 -73 0 -53 4 -76 17 -90 16 -18
16 -18 0 -12 -16 6 -17 -326 -14 -5747 3 -6236 0 -5806 52 -6111 163 -943 760
-1800 1608 -2310 476 -285 912 -421 1502 -468 101 -8 2093 -10 7170 -8 6558 3
7038 5 7155 21 570 78 997 234 1438 526 148 98 342 249 342 266 0 16 -65 98
-111 141 -72 67 -208 144 -253 144 -9 0 -16 8 -16 18 0 12 17 22 61 36 66 21
154 74 218 131 67 61 171 236 171 289 0 9 8 16 18 16 12 0 22 -17 35 -58 32
-99 130 -226 239 -306 l36 -27 49 58 c272 327 496 743 616 1143 78 260 119
498 137 800 8 143 10 1721 8 5910 -3 5706 -3 5715 -23 5717 l-20 3 20 -9 c18
-9 16 -11 -14 -15 -5 0 -13 -4 -17 -8 -4 -5 -12 -8 -17 -8 -6 0 -7 3 -4 6 3 4
2 15 -3 25 -8 14 -5 23 12 40 13 12 18 19 12 16 -6 -4 -20 1 -30 9 -18 15 -18
15 6 9 14 -4 30 -7 37 -7 7 -1 11 -4 9 -7 -1 -3 5 -14 16 -23 14 -14 18 -15
18 -4 0 8 -5 18 -11 22 -8 4 -7 9 2 15 12 7 11 9 -1 10 -57 7 -68 16 -64 57 1
20 -2 42 -8 49 -6 8 -6 13 -1 13 5 0 10 7 10 15 0 10 -4 12 -10 6 -14 -14 -18
-83 -4 -74 6 4 7 1 3 -6 -5 -7 -14 -10 -21 -7 -14 5 -35 -12 -35 -28 0 -6 5
-4 10 4 7 12 10 12 10 1 0 -7 6 -11 15 -7 8 3 15 1 15 -4 0 -6 -11 -10 -25
-10 -14 0 -25 -4 -25 -10 0 -5 6 -7 14 -4 15 6 25 -5 31 -36 3 -14 -2 -20 -13
-20 -15 -1 -15 -2 -2 -13 8 -7 15 -19 15 -27 0 -17 -26 -41 -37 -34 -5 3 -8 1
-8 -4 0 -6 14 -15 30 -21 38 -13 38 -18 0 -15 -16 1 -30 -3 -30 -8 0 -6 7 -7
16 -4 14 5 15 4 4 -9 -11 -13 -10 -14 3 -10 8 4 18 2 22 -4 4 -7 -4 -11 -19
-11 -16 0 -26 6 -26 15 0 8 -5 15 -11 15 -6 0 -8 -7 -5 -16 6 -15 4 -15 -11
-3 -10 8 -21 19 -25 24 -4 6 -7 -7 -6 -27 1 -37 11 -48 23 -28 3 6 16 10 28 9
18 0 15 -4 -13 -16 -32 -14 -33 -16 -15 -24 18 -8 17 -8 -5 -6 -14 1 -28 6
-32 12 -4 5 -6 -9 -5 -32 2 -27 -2 -44 -10 -47 -10 -4 -13 11 -13 59 0 55 3
65 18 65 16 1 16 1 0 11 -17 9 -18 74 -18 1137 0 670 -4 1186 -10 1272 -44
613 -242 1180 -588 1685 -266 388 -635 735 -1039 975 -420 251 -839 396 -1316
455 -107 13 -952 15 -7057 14 -3814 -1 -6966 -5 -7005 -10z m12678 -396 c-7
-2 -13 -13 -13 -22 0 -23 -46 -66 -55 -52 -4 7 -1 10 7 9 7 -2 14 4 14 12 3
32 5 34 14 20 8 -12 10 -11 10 6 0 23 8 34 24 33 6 0 5 -3 -1 -6z m-148 -162
c3 -5 2 -12 -3 -15 -5 -3 -9 1 -9 9 0 17 3 19 12 6z m-22 -22 c5 -17 3 -18
-11 -7 -13 11 -15 11 -9 -4 4 -11 -11 -35 -46 -74 -72 -80 -147 -150 -159
-146 -5 1 -7 -2 -3 -7 5 -9 -176 -204 -318 -343 l-48 -47 -171 0 -171 0 -32
-31 c-73 -71 -179 -7 -140 86 26 62 90 71 142 19 l36 -36 161 0 161 0 260 265
c144 148 268 266 278 266 9 0 17 7 17 16 0 9 5 12 11 8 7 -4 10 -1 7 7 -3 8 1
22 10 32 19 21 19 21 25 -4z m-932 -98 c36 -37 38 -79 5 -117 -35 -41 -90 -39
-126 4 l-26 32 -1155 0 -1154 0 -134 -135 -135 -135 -150 0 c-83 0 -230 -3
-326 -7 -175 -6 -175 -6 -208 -34 -69 -61 -152 -27 -152 62 0 87 100 123 156
57 l27 -33 315 -3 315 -3 132 136 132 135 1163 0 1163 0 38 35 c48 43 81 45
120 6z m1125 -108 c-2 -28 -38 -66 -48 -51 -4 7 -8 11 -9 8 0 -3 -2 -13 -4
-24 -4 -23 -195 -216 -213 -216 -7 0 -10 -5 -7 -11 9 -13 -34 -51 -48 -42 -6
3 -7 1 -3 -5 9 -14 -163 -194 -177 -185 -6 3 -7 1 -4 -4 6 -10 -64 -87 -138
-153 l-27 -24 -971 -4 -971 -4 -18 -23 c-9 -12 -31 -28 -48 -35 -71 -29 -141
50 -105 119 32 62 100 70 149 17 l31 -35 962 -1 962 -1 107 110 c59 61 111
108 116 105 4 -3 7 -1 6 4 -5 16 134 154 148 148 7 -3 16 -1 19 4 4 6 -1 10
-9 10 -9 0 53 70 137 155 84 85 155 155 158 155 4 0 6 -8 5 -17z m-5183 -263
c-3 -12 -8 -19 -11 -16 -5 6 5 36 12 36 2 0 2 -9 -1 -20z m4977 -370 c0 -5 -5
-10 -11 -10 -5 0 -7 5 -4 10 3 6 8 10 11 10 2 0 4 -4 4 -10z m-34 -67 c-54
-58 -151 -150 -141 -134 5 10 4 12 -4 7 -6 -4 -9 -11 -6 -17 3 -5 -25 -40 -62
-79 l-68 -70 -258 0 -257 0 -29 -32 c-51 -58 -132 -37 -147 38 -4 24 0 37 21
62 37 44 85 44 125 2 l28 -30 238 -4 c154 -2 247 0 264 7 14 5 29 9 33 8 5 -1
6 2 3 7 -8 13 130 156 143 148 9 -6 15 5 13 25 -1 3 16 17 38 30 21 13 35 28
32 33 -7 12 27 36 50 36 15 0 12 -7 -16 -37z m-5634 -341 c-5 -15 -7 -14 -10
3 -2 11 -9 27 -15 35 -7 8 -2 7 10 -3 14 -12 19 -25 15 -35z m-147 28 c3 -5
-1 -10 -10 -10 -9 0 -13 5 -10 10 3 6 8 10 10 10 2 0 7 -4 10 -10z m390 -10
c3 -5 1 -10 -4 -10 -6 0 -11 5 -11 10 0 6 2 10 4 10 3 0 8 -4 11 -10z m40 -20
c3 -5 1 -10 -4 -10 -6 0 -11 5 -11 10 0 6 2 10 4 10 3 0 8 -4 11 -10z m-435
-4 c0 -3 -4 -8 -10 -11 -5 -3 -10 -1 -10 4 0 6 5 11 10 11 6 0 10 -2 10 -4z
m354 -17 c-3 -5 -10 -7 -15 -3 -5 3 -7 10 -3 15 3 5 10 7 15 3 5 -3 7 -10 3
-15z m-231 -4 c-3 -9 -8 -14 -10 -11 -3 3 -2 9 2 15 9 16 15 13 8 -4z m346
-16 c-16 -10 -23 -4 -14 10 3 6 11 8 17 5 6 -4 5 -9 -3 -15z m-159 -5 c0 -8 4
-13 10 -9 5 3 3 -7 -5 -22 -13 -24 -13 -29 1 -36 9 -5 24 -7 35 -4 10 3 22 1
25 -4 3 -5 12 -9 20 -9 15 0 45 -24 44 -35 0 -3 2 -16 6 -29 7 -28 -13 -106
-26 -106 -6 0 -20 -10 -32 -22 -18 -18 -23 -19 -32 -7 -6 8 -19 13 -28 11 -10
-2 -18 1 -18 7 0 6 5 11 11 11 5 0 7 5 3 11 -4 8 -9 7 -14 -2 -15 -23 -44 20
-46 68 -2 37 1 43 13 38 13 -4 13 -3 4 9 -9 11 -8 17 4 29 21 22 20 44 -2 26
-9 -8 -14 -9 -10 -2 4 6 1 14 -5 16 -9 4 -10 8 -2 14 6 4 10 16 8 26 -1 9 2
15 6 12 5 -3 7 -17 4 -31 -3 -18 -1 -23 7 -19 7 5 9 21 6 41 -3 19 -2 34 4 34
5 0 9 -7 9 -16z m-305 -23 c3 -5 0 -13 -6 -17 -7 -4 -9 -3 -5 4 3 5 0 13 -6
15 -9 4 -10 6 -1 6 6 1 14 -3 18 -8z m255 -7 c0 -8 -5 -12 -10 -9 -6 4 -8 11
-5 16 9 14 15 11 15 -7z m214 8 c-5 -4 -12 -11 -15 -15 -3 -5 -9 -2 -12 5 -3
9 3 14 15 15 11 1 16 -1 12 -5z m-370 -11 c3 -4 -4 -17 -17 -27 -17 -15 -19
-15 -8 -2 7 9 10 22 6 28 -3 5 -2 10 4 10 5 0 12 -4 15 -9z m-154 -16 c7 -9 8
-15 2 -15 -5 0 -12 7 -16 15 -3 8 -4 15 -2 15 2 0 9 -7 16 -15z m383 0 c-3 -9
-8 -14 -10 -11 -3 3 -2 9 2 15 9 16 15 13 8 -4z m188 -8 c-10 -9 -11 -8 -5 6
3 10 9 15 12 12 3 -3 0 -11 -7 -18z m-276 3 c3 -5 1 -10 -4 -10 -6 0 -11 5
-11 10 0 6 2 10 4 10 3 0 8 -4 11 -10z m190 0 c3 -5 1 -10 -4 -10 -6 0 -11 5
-11 10 0 6 2 10 4 10 3 0 8 -4 11 -10z m-450 -16 c-11 -8 -19 -19 -18 -24 2
-5 -4 -7 -12 -4 -20 8 -19 11 13 28 35 20 42 19 17 0z m53 -24 c-2 -16 0 -31
6 -33 6 -2 6 -6 1 -9 -6 -3 -16 0 -23 8 -8 8 -9 14 -2 14 6 0 8 10 4 25 -4 16
-2 25 6 25 8 0 11 -11 8 -30z m154 11 c11 6 19 5 23 -1 4 -6 12 -7 18 -4 7 4
8 3 4 -2 -5 -5 -10 -7 -11 -4 -2 3 -11 -2 -21 -10 -11 -8 -16 -10 -12 -3 5 8
0 11 -14 10 -15 -1 -19 -7 -16 -23 3 -19 1 -21 -14 -11 -9 6 -15 17 -13 24 15
50 15 49 28 31 8 -11 17 -13 28 -7z m303 -55 c0 -20 -2 -23 -17 -15 -21 11
-23 20 -6 37 15 15 21 8 23 -22z m-250 -7 c-3 -4 -12 -6 -20 -3 -8 4 -13 10
-10 15 3 4 12 6 20 3 8 -4 13 -10 10 -15z m3759 -14 l32 -35 316 0 c235 -1
318 -4 321 -13 3 -9 10 -9 30 0 22 10 25 10 20 -2 -3 -8 -6 -15 -7 -15 0 -1
-154 -3 -341 -7 l-340 -5 -33 -29 c-45 -40 -91 -40 -126 2 -34 40 -33 74 3
110 42 41 84 40 125 -6z m-3780 -16 c14 12 16 10 16 -7 0 -11 -6 -22 -12 -24
-15 -5 -38 15 -38 34 0 10 2 10 9 -1 8 -12 12 -12 25 -2z m-41 -29 c9 0 17 -4
17 -10 0 -5 -6 -10 -12 -10 -15 1 -58 35 -58 46 0 4 8 0 18 -9 10 -10 26 -17
35 -17z m302 0 c1 -16 -1 -17 -19 -7 -19 10 -19 12 -3 15 10 2 14 8 11 15 -4
7 -3 9 1 4 5 -4 9 -16 10 -27z m-550 10 c3 -5 -1 -10 -9 -10 -9 0 -16 5 -16
10 0 6 4 10 9 10 6 0 13 -4 16 -10z m5023 -16 c6 3 13 2 16 -2 3 -5 -23 -10
-57 -11 -34 -1 -58 1 -54 5 4 4 20 7 37 6 17 0 30 5 30 11 0 8 3 7 9 -2 5 -7
13 -11 19 -7z m-110 -9 c3 -3 -7 -5 -21 -5 -15 0 -27 4 -27 9 0 10 38 7 48 -4z
m763 -47 c30 -34 53 -66 52 -70 -2 -4 0 -7 5 -6 11 3 52 -22 52 -32 0 -6 -11
-10 -24 -10 -17 0 -44 22 -96 80 -45 49 -80 80 -94 81 -16 1 -14 3 9 9 17 4
33 8 36 9 3 0 30 -27 60 -61z m-5662 26 c6 -15 9 -29 6 -32 -3 -3 -5 0 -5 8 0
10 -3 10 -17 -1 -10 -7 -15 -10 -11 -5 4 5 3 16 -2 26 -9 17 -4 30 10 30 4 0
12 -12 19 -26z m296 16 c-3 -5 -12 -10 -18 -10 -7 0 -6 4 3 10 19 12 23 12 15
0z m305 0 c0 -5 -5 -10 -11 -10 -5 0 -7 5 -4 10 3 6 8 10 11 10 2 0 4 -4 4
-10z m-473 -40 c-1 -10 -4 -17 -8 -14 -4 2 -7 13 -6 24 1 10 4 17 8 14 4 -2 7
-13 6 -24z m420 15 c0 -8 -4 -12 -9 -9 -4 3 -8 -3 -9 -13 0 -11 -3 -13 -6 -5
-3 7 1 19 7 27 15 19 17 19 17 0z m-502 -5 c3 -5 2 -10 -4 -10 -5 0 -13 5 -16
10 -3 6 -2 10 4 10 5 0 13 -4 16 -10z m565 0 c0 -5 -4 -10 -10 -10 -5 0 -10 5
-10 10 0 6 5 10 10 10 6 0 10 -4 10 -10z m-333 -17 c0 -7 -4 -13 -8 -13 -4 0
-9 6 -12 13 -3 8 0 14 7 14 7 0 13 -6 13 -14z m65 -16 c-7 -8 -8 -18 -4 -22 4
-5 1 -5 -5 -1 -10 5 -10 11 -1 26 7 11 14 17 17 15 2 -3 -1 -11 -7 -18z m-182
-8 c0 -6 -4 -7 -10 -4 -5 3 -10 11 -10 16 0 6 5 7 10 4 6 -3 10 -11 10 -16z
m-110 -8 c0 -4 -6 -8 -14 -8 -8 0 -12 6 -9 14 5 13 23 9 23 -6z m422 -14 c-5
-17 -7 -18 -10 -5 -2 10 -9 15 -17 12 -8 -3 -11 -13 -8 -22 4 -15 3 -15 -6 -2
-8 12 -14 13 -30 3 -16 -10 -19 -9 -23 11 -4 22 -2 24 34 21 21 -2 40 1 44 6
10 17 22 -1 16 -24z m-158 -8 c-9 -15 -20 -10 -20 10 0 15 3 17 13 9 7 -6 10
-14 7 -19z m190 13 c3 -5 -1 -9 -9 -9 -8 0 -12 4 -9 9 3 4 7 8 9 8 2 0 6 -4 9
-8z m-459 -30 c-3 -3 -11 0 -18 7 -9 10 -8 11 6 5 10 -3 15 -9 12 -12z m499
-2 c-6 -6 -15 -5 -24 1 -13 9 -12 10 3 5 9 -3 17 0 17 6 0 6 3 8 7 5 4 -4 2
-12 -3 -17z m-209 0 c-3 -5 -14 -10 -23 -9 -14 0 -13 2 3 9 27 11 27 11 20 0z
m85 6 c0 -3 -4 -8 -10 -11 -5 -3 -10 -1 -10 4 0 6 5 11 10 11 6 0 10 -2 10 -4z
m-342 -41 c-3 -3 -9 2 -12 12 -6 14 -5 15 5 6 7 -7 10 -15 7 -18z m270 13 c-2
-7 5 -13 14 -13 9 0 20 -3 24 -7 4 -4 19 -5 33 -1 14 3 22 2 18 -3 -12 -13
-57 -16 -57 -4 0 6 -5 8 -11 5 -5 -4 -22 -4 -36 0 -24 6 -25 7 -7 20 24 18 25
18 22 3z m92 5 c0 -1 -9 -7 -19 -12 -13 -8 -22 -7 -29 2 -8 9 -3 12 19 12 16
0 29 -1 29 -2z m307 -15 c-3 -8 -6 -5 -6 6 -1 11 2 17 5 13 3 -3 4 -12 1 -19z
m5082 18 c-2 -2 -15 -9 -29 -15 -24 -11 -24 -11 -6 3 16 13 49 24 35 12z
m-5579 -15 c0 -5 -10 -11 -22 -13 -12 -2 -23 -9 -26 -17 -3 -8 0 -11 7 -7 6 4
11 5 11 2 0 -13 -19 -14 -30 -2 -9 12 -6 18 17 30 33 18 43 19 43 7z m-124
-16 c-11 -8 -27 -14 -35 -14 -13 1 -12 2 2 6 9 2 17 9 17 14 0 5 8 9 18 9 15
-1 15 -2 -2 -15z m358 -10 c-4 -8 -11 -15 -16 -15 -6 0 -5 6 2 15 7 8 14 15
16 15 2 0 1 -7 -2 -15z m177 -102 c13 -16 12 -17 -3 -4 -17 13 -22 21 -14 21
2 0 10 -8 17 -17z m-187 -12 c3 -5 -1 -14 -8 -20 -12 -10 -13 -8 -9 8 6 23 9
25 17 12z m131 -9 c-3 -3 -11 0 -18 7 -9 10 -8 11 6 5 10 -3 15 -9 12 -12z
m-28 -9 c-4 -3 1 -12 11 -19 16 -12 15 -13 -5 -11 -12 0 -19 5 -17 9 3 4 -1 8
-8 8 -9 0 -9 3 2 10 17 11 26 13 17 3z m-61 -18 c-8 -8 -21 -15 -28 -15 -10 0
-10 -3 2 -9 8 -6 19 -7 25 -4 5 4 6 2 2 -3 -5 -5 -12 -8 -15 -7 -4 1 -13 -3
-20 -9 -9 -8 -11 -7 -6 6 5 14 2 17 -14 14 -12 -1 -21 2 -21 7 0 6 7 9 15 7 8
-2 24 4 36 13 29 19 44 20 24 0z m-241 -13 c-3 -3 -11 0 -18 7 -9 10 -8 11 6
5 10 -3 15 -9 12 -12z m92 -11 c10 -16 9 -22 -5 -32 -9 -7 -14 -10 -10 -5 4 4
3 19 -2 32 -11 29 0 32 17 5z m178 9 c3 -5 1 -10 -4 -10 -6 0 -11 5 -11 10 0
6 2 10 4 10 3 0 8 -4 11 -10z m-134 -14 c25 -11 18 -34 -12 -38 -23 -4 -26 -2
-19 12 6 11 5 21 -2 28 -12 12 4 11 33 -2z m-1213 -2493 c-2 -918 -2 -1729 1
-1803 l6 -135 52 100 c29 55 70 129 92 165 22 36 35 67 30 68 -5 2 -6 8 -3 13
5 8 6 68 2 113 -1 8 -7 12 -15 9 -7 -3 -13 1 -14 8 -5 59 -7 85 -8 90 -1 3
-23 4 -51 2 -27 -1 -52 2 -55 7 -9 14 22 55 143 195 138 159 196 237 235 315
28 57 32 74 32 150 0 126 -19 172 -150 355 -35 49 -107 154 -118 172 -5 8 -3
11 5 8 7 -3 19 -1 27 4 11 7 13 41 9 175 l-4 165 -43 58 c-43 59 -104 178
-116 223 -5 23 -3 22 22 -9 53 -66 109 -130 278 -323 94 -106 203 -232 242
-280 90 -107 116 -128 160 -128 54 0 89 27 171 135 42 55 144 186 227 290 83
105 220 279 304 388 l153 198 -12 49 c-12 52 -48 115 -65 115 -6 0 -29 -35
-51 -77 -23 -43 -51 -92 -63 -110 l-21 -33 0 330 0 330 151 150 c84 83 149
142 146 133 -21 -60 -26 -205 -32 -793 -5 -525 -9 -664 -20 -680 -7 -11 -68
-83 -135 -160 -387 -444 -456 -584 -390 -799 23 -72 181 -319 292 -455 54 -65
59 -76 53 -105 -4 -17 -9 -64 -12 -103 -2 -40 -9 -73 -14 -73 -6 0 -7 -5 -4
-11 9 -13 -24 -51 -38 -42 -6 3 -7 1 -3 -6 4 -6 4 -21 0 -33 -6 -21 -7 -21
-20 -3 -25 33 -15 6 12 -35 28 -41 42 -54 25 -21 -10 18 -6 31 11 31 9 0 21
-27 32 -73 4 -18 3 -26 -3 -22 -6 3 4 -20 22 -51 17 -31 39 -59 47 -62 8 -3
23 -12 32 -19 9 -8 21 -12 27 -9 5 4 12 2 15 -2 3 -5 19 -8 35 -7 37 2 36 5
51 -270 7 -110 18 -243 25 -295 8 -52 12 -96 11 -98 -2 -2 -34 86 -70 195 -76
224 -133 349 -231 508 -106 172 -350 529 -438 643 -124 159 -175 197 -236 176
-54 -19 -461 -527 -577 -721 -155 -257 -180 -414 -169 -1040 l6 -383 -28 -11
c-15 -6 -70 -31 -121 -56 -123 -60 -191 -122 -239 -221 l-38 -76 -5 -270 -5
-271 -41 -75 c-22 -41 -75 -149 -116 -240 -42 -91 -127 -266 -188 -390 l-111
-225 5 130 c3 72 7 731 7 1465 1 734 4 1320 8 1303 6 -32 7 -32 33 -19 25 13
26 13 31 -13 3 -14 6 -294 6 -621 1 -659 7 -844 26 -808 6 13 10 35 10 50 -1
15 2 25 6 22 4 -2 10 0 14 6 3 5 2 10 -3 10 -5 0 -9 13 -8 29 1 24 4 27 15 18
12 -10 14 -9 8 6 -4 11 -1 20 7 23 8 3 11 15 8 30 -2 13 0 24 7 24 5 0 8 6 5
13 -2 7 4 30 15 52 10 22 16 42 13 45 -11 8 -11 40 0 40 6 0 8 7 4 15 -3 9 0
15 10 15 10 0 14 6 11 14 -3 8 -1 16 6 19 7 2 12 10 13 18 9 129 19 -45 22
-376 3 -361 11 -505 28 -505 7 0 16 5 19 10 4 6 1 9 -6 8 -6 -2 -14 3 -16 10
-3 6 0 12 5 12 6 0 17 -6 24 -12 7 -7 23 -13 34 -14 l22 0 7 2115 c4 1164 5
2443 1 2844 l-6 727 251 0 251 0 -4 -1667z m2262 -822 c0 -1368 3 -2517 6
-2552 l6 -64 -49 55 c-57 62 -161 122 -331 189 -56 23 -110 45 -120 51 -21 12
-168 72 -282 116 l-85 32 -5 409 c-3 224 -4 410 -3 412 4 7 81 -156 87 -184 3
-16 7 -54 8 -83 1 -47 3 -51 13 -32 10 19 19 4 80 -147 38 -92 74 -188 81
-213 11 -45 38 -74 52 -55 12 17 37 11 44 -10 3 -11 7 185 8 435 1 250 3 480
4 510 2 30 4 857 4 1838 l2 1782 240 0 240 0 0 -2489z m-2871 1849 c-4 -316
-5 -672 -3 -790 2 -118 0 -240 -5 -270 -5 -30 -9 -49 -10 -41 0 7 -7 11 -16 7
-8 -3 -15 -1 -15 4 0 9 -39 26 -52 22 -14 -4 -8 22 18 78 21 45 24 63 19 100
-9 58 -51 190 -69 212 -12 16 -16 10 -40 -50 -14 -37 -40 -89 -56 -117 l-30
-50 0 54 c0 48 11 77 104 270 l105 216 -20 90 c-40 179 -77 205 -139 97 -20
-34 -42 -68 -48 -74 -9 -9 -12 50 -12 255 l0 268 117 122 c64 67 125 134 136
149 11 15 21 27 22 25 1 -1 -2 -261 -6 -577z m-132 -290 c8 -54 -158 -362
-362 -675 -549 -840 -1198 -1585 -1865 -2144 -211 -177 -414 -332 -397 -304 5
8 -6 10 -40 7 -27 -3 -56 -5 -65 -5 -10 0 -18 -3 -18 -7 0 -4 -16 -16 -35 -26
-19 -11 -35 -23 -35 -27 0 -4 -13 -10 -30 -14 -16 -4 -30 -11 -30 -16 0 -5 -3
-8 -7 -7 -5 1 -25 -2 -45 -6 -20 -5 -41 -5 -47 -2 -6 4 70 60 167 126 614 413
1391 1175 1920 1884 298 397 672 968 794 1211 17 33 38 71 47 84 l15 24 14
-34 c8 -19 17 -50 19 -69z m-17 -544 l21 -45 -66 -145 c-149 -330 -402 -767
-730 -1261 -368 -553 -690 -964 -1092 -1390 -156 -166 -191 -195 -186 -155 1
10 -4 8 -15 -6 -19 -24 -58 -42 -46 -21 6 9 5 9 -8 0 -8 -7 -18 -10 -21 -6 -4
3 -9 -2 -13 -11 -3 -9 -10 -13 -15 -11 -4 3 -18 -4 -29 -15 -18 -18 -19 -24
-9 -38 7 -9 -1 -4 -19 12 l-32 30 203 205 c720 728 1338 1606 1946 2764 40 75
76 137 81 137 4 0 18 -20 30 -44z m3513 -469 c386 -532 908 -1121 1333 -1503
174 -157 451 -382 652 -531 61 -45 112 -85 112 -87 0 -2 -11 -29 -25 -60 -17
-39 -29 -55 -38 -50 -72 43 -424 320 -662 523 -534 455 -1198 1213 -1597 1820
l-88 134 0 100 0 100 92 -134 c50 -74 150 -214 221 -312z m5398 -79 c677 -583
1481 -1278 1521 -1314 l37 -33 -252 -223 c-138 -123 -371 -331 -517 -462 -146
-131 -364 -328 -485 -436 -121 -108 -332 -298 -470 -422 l-250 -225 -5 136
c-3 75 -6 264 -8 420 -1 157 -4 286 -6 288 -2 2 -90 4 -197 4 -146 0 -209 -4
-254 -16 -127 -34 -243 -104 -336 -201 -106 -113 -134 -165 -283 -525 -57
-140 -163 -393 -236 -564 -72 -170 -244 -575 -381 -900 -509 -1204 -653 -1535
-667 -1535 -7 0 -11 4 -8 9 3 5 -1 11 -9 15 -8 3 -14 0 -12 -6 1 -6 -3 -12 -9
-15 -7 -2 -10 6 -8 22 2 23 0 24 -14 13 -13 -11 -14 -11 -7 1 6 11 3 13 -14 8
-15 -4 -21 -2 -18 6 3 7 60 140 127 297 151 353 269 636 371 890 l79 195 -25
15 c-14 8 -25 19 -25 23 0 5 -11 18 -25 29 -14 11 -25 26 -25 34 0 8 -5 14
-11 14 -5 0 -8 3 -6 8 3 4 -6 39 -19 77 -15 46 -24 93 -24 139 0 58 -4 73 -25
98 -49 57 -24 167 46 203 16 9 35 28 44 44 22 43 179 428 199 488 17 52 17 53
-5 84 -12 17 -22 45 -21 61 1 43 45 96 86 104 33 6 36 10 77 112 72 183 197
462 265 591 62 119 119 206 183 280 25 29 31 32 37 18 3 -9 10 -14 15 -11 5 3
9 0 9 -6 0 -6 6 -8 13 -5 6 4 5 1 -4 -7 -8 -7 -43 -50 -76 -95 -93 -125 -222
-389 -363 -743 -58 -145 -60 -152 -45 -180 8 -16 15 -44 15 -63 0 -45 -38
-101 -71 -105 -32 -4 -69 -76 -184 -360 l-83 -203 9 -71 c8 -67 7 -74 -17
-117 -58 -100 -58 -100 -45 -153 6 -27 24 -68 40 -91 31 -45 98 -113 104 -106
2 2 45 101 94 219 50 118 170 402 266 630 96 228 225 536 286 684 62 147 121
287 133 310 62 122 181 261 293 342 67 49 215 118 295 138 92 23 227 30 434
21 l179 -7 -8 -356 -7 -356 60 55 c33 29 224 203 424 385 395 360 666 603 965
865 105 93 194 173 198 178 5 9 -101 106 -275 251 -65 54 -68 55 -23 12 45
-43 49 -50 29 -48 -13 0 -22 6 -20 11 3 6 -5 16 -17 23 -12 8 -18 9 -15 3 4
-5 -5 -16 -20 -24 -17 -9 -23 -17 -15 -21 6 -4 11 -15 11 -24 0 -12 -3 -13
-12 -4 -14 14 -48 16 -48 3 0 -6 9 -8 20 -6 11 2 20 -1 20 -7 0 -5 -7 -8 -15
-5 -8 4 -17 2 -21 -4 -3 -6 -12 -8 -19 -5 -7 2 -19 -1 -26 -7 -7 -7 -6 -3 2 8
36 45 35 47 -24 30 -25 -7 -26 -9 -11 -20 15 -10 15 -14 3 -31 -8 -10 -27 -20
-44 -22 l-30 -2 35 20 c19 12 26 18 15 15 -11 -4 -29 -8 -40 -9 -11 0 -22 -10
-25 -21 -3 -11 -15 -21 -25 -23 -12 -2 -16 0 -10 5 6 4 11 14 13 21 2 10 -2
10 -19 0 -17 -10 -23 -10 -26 -1 -3 9 -10 9 -28 1 -21 -9 -27 -7 -44 13 -11
13 -20 18 -21 12 0 -7 -5 -13 -11 -13 -5 0 -7 5 -4 10 9 14 -18 12 -35 -2 -8
-7 -6 -3 5 10 16 20 17 22 2 16 -10 -3 -17 -1 -17 6 0 6 -5 8 -10 5 -6 -4 -7
-11 -4 -17 14 -22 -43 6 -82 41 -22 20 13 -16 79 -79 l119 -115 -268 -257
c-193 -186 -271 -255 -280 -247 -6 5 -24 28 -40 51 l-29 41 178 171 c97 94
177 173 177 176 0 3 -314 7 -698 8 -609 3 -711 2 -806 -13 -346 -52 -650 -230
-878 -514 -69 -86 -87 -114 -156 -238 -59 -105 -73 -138 -242 -553 -119 -293
-240 -588 -582 -1425 -75 -181 -192 -463 -261 -625 -68 -162 -178 -423 -242
-580 -441 -1072 -511 -1220 -648 -1367 -91 -97 -226 -186 -337 -222 -56 -18
-173 -41 -181 -35 -18 11 15 51 63 78 28 16 53 37 55 46 3 10 17 21 31 25 15
4 63 23 107 44 166 78 292 236 413 521 46 107 328 789 456 1102 31 76 56 143
55 150 0 7 -4 3 -9 -9 -16 -40 -44 -19 -35 26 2 14 -1 18 -11 14 -8 -3 -14
-12 -14 -20 0 -8 -5 -11 -10 -8 -6 4 -8 10 -5 15 3 5 0 12 -6 16 -8 4 -9 3 -5
-4 4 -7 3 -12 -2 -12 -5 0 -15 21 -22 46 -7 25 -16 41 -19 36 -11 -17 -36 -19
-49 -3 -11 15 -12 15 -7 0 5 -13 0 -15 -25 -11 -17 2 -30 0 -30 -6 0 -6 9 -9
20 -7 21 4 27 -9 10 -20 -5 -3 -10 -1 -10 6 0 10 -3 10 -12 1 -7 -7 -16 -8
-23 -2 -17 14 -83 -12 -78 -30 3 -10 -2 -8 -13 5 -13 16 -16 17 -11 3 3 -10 2
-20 -3 -23 -6 -4 -10 -2 -10 3 0 5 -7 9 -15 9 -12 0 -12 -3 -2 -16 9 -12 9
-13 0 -7 -7 4 -13 3 -13 -2 0 -5 -12 -8 -27 -6 -24 2 -26 1 -11 -10 14 -11 13
-13 -13 -25 -16 -7 -27 -17 -24 -21 3 -5 -8 -5 -24 0 -25 7 -29 6 -24 -8 4 -9
2 -13 -4 -9 -5 3 -21 0 -36 -8 -14 -7 -28 -11 -30 -9 -2 3 -3 -7 -1 -22 2 -18
-1 -23 -8 -16 -6 6 -17 8 -25 5 -11 -5 -12 -8 -2 -14 8 -5 0 -13 -26 -23 -21
-9 -44 -24 -52 -34 -8 -9 -11 -11 -8 -3 5 9 -1 7 -19 -4 -15 -10 -25 -24 -22
-31 3 -7 0 -16 -6 -20 -6 -4 -8 -3 -4 4 3 6 2 13 -4 17 -5 3 -10 1 -10 -6 0
-7 -3 -9 -6 -6 -4 4 -1 14 7 24 12 14 12 16 0 8 -14 -8 -14 -5 3 50 16 51 -77
-156 -249 -555 -267 -621 -272 -630 -367 -617 -77 10 -89 25 -219 270 l-82
156 -38 -22 c-28 -16 -35 -25 -27 -34 10 -13 -1 -18 -26 -14 -4 1 -14 -6 -22
-16 -11 -15 -14 -15 -14 -3 -1 8 -7 3 -13 -11 -7 -15 -16 -28 -22 -29 -5 -1
-9 -5 -8 -9 2 -8 -6 -10 -51 -13 -25 -2 -26 -18 -2 -18 8 0 20 -7 27 -17 13
-15 12 -15 -8 -5 -36 20 -54 15 -49 -12 3 -18 1 -23 -10 -19 -8 3 -14 0 -14
-7 0 -7 -6 -10 -14 -7 -13 5 21 -80 101 -253 67 -143 153 -260 228 -311 24
-16 34 -30 31 -41 -2 -10 0 -18 5 -18 5 0 9 -5 9 -10 0 -19 -83 31 -138 83
-72 69 -144 179 -236 365 -69 138 -79 152 -93 140 -12 -9 -15 -9 -9 -1 5 9 2
11 -8 7 -9 -3 -16 -12 -16 -20 0 -8 -6 -13 -12 -12 -8 2 -12 -6 -12 -20 1 -17
-3 -22 -14 -17 -8 3 -21 -3 -29 -12 -8 -10 -11 -12 -7 -4 5 10 1 11 -17 6 -13
-4 -25 -12 -27 -16 -2 -5 -10 -9 -18 -9 -8 0 -14 -2 -14 -4 0 -14 163 -342
194 -390 77 -120 201 -228 328 -285 61 -28 177 -61 211 -61 20 0 22 -11 5 -29
-10 -11 -10 -13 0 -7 14 9 17 -10 2 -19 -6 -4 -8 -11 -5 -16 10 -15 -46 -10
-127 10 -213 55 -376 167 -487 336 -25 39 -111 197 -191 351 -79 154 -150 281
-157 281 -7 0 -13 -4 -13 -9 0 -5 -5 -6 -11 -3 -5 4 -19 -3 -30 -16 -10 -12
-19 -17 -19 -10 0 7 -5 9 -11 5 -8 -4 -8 -9 0 -17 19 -19 12 -27 -21 -20 -24
5 -29 3 -23 -7 6 -10 3 -12 -13 -8 -12 4 -22 2 -22 -3 0 -5 -7 -9 -15 -9 -9 0
-18 -7 -21 -15 -4 -8 -10 -13 -14 -10 -5 3 -13 -3 -19 -12 -6 -10 -11 -14 -11
-9 0 5 -9 -3 -21 -18 -17 -21 -24 -24 -35 -15 -8 6 23 -67 67 -162 45 -96 107
-230 139 -299 159 -345 200 -405 354 -512 114 -79 227 -110 461 -127 180 -14
466 -14 501 -1 15 6 58 43 96 83 50 51 66 64 59 45 -7 -19 -7 -28 2 -32 9 -3
8 -7 -3 -15 -8 -6 -11 -11 -7 -11 4 0 -5 -17 -20 -37 -27 -36 -27 -37 -3 -20
46 32 110 13 110 -32 0 -42 -14 -44 -395 -45 -270 -1 -365 -4 -365 -13 0 -6
16 -53 36 -105 20 -51 60 -156 89 -233 29 -77 56 -148 60 -157 6 -14 2 -18
-18 -18 -22 0 -29 10 -57 77 -28 67 -159 403 -172 443 -4 10 -37 20 -105 32
-55 9 -126 27 -157 39 -83 30 -223 128 -292 202 -71 76 -108 142 -294 529
-131 273 -144 296 -161 285 -11 -7 -19 -15 -19 -19 0 -5 -5 -8 -11 -8 -5 0 -8
4 -5 9 8 12 -24 7 -32 -5 -4 -5 -13 -9 -19 -10 -7 -1 -22 -2 -34 -3 -11 0 -17
-5 -14 -11 3 -5 -1 -10 -10 -10 -8 0 -18 -6 -21 -14 -3 -9 -12 -12 -21 -9 -11
4 -14 2 -9 -5 10 -16 -7 -15 -23 1 -18 18 5 -33 166 -373 191 -402 256 -530
304 -604 22 -34 32 -52 22 -41 -10 11 -25 21 -33 23 -27 5 -59 25 -54 33 3 5
-3 6 -12 2 -11 -4 -13 -8 -6 -11 7 -2 12 -11 12 -19 0 -9 -6 -13 -14 -10 -12
5 -13 0 -5 -26 l9 -32 -20 25 c-32 41 -132 230 -241 455 -56 116 -142 293
-191 395 -202 415 -428 897 -428 910 0 4 14 10 31 14 69 13 665 275 829 363
187 101 268 175 316 290 l29 68 5 380 5 380 49 -100 c27 -55 95 -197 151 -315
122 -256 502 -1035 640 -1310 98 -198 121 -234 137 -224 13 9 59 105 133 279
61 145 179 424 515 1215 62 146 193 459 292 695 278 663 394 941 548 1305 78
184 204 484 279 665 160 383 198 460 295 610 277 424 705 736 1187 864 233 62
334 73 767 78 l392 5 0 430 c0 248 4 428 9 426 5 -1 195 -163 422 -360z
m-8915 22 l27 -40 -43 -118 c-174 -481 -422 -984 -805 -1632 -151 -256 -369
-593 -507 -782 l-99 -138 -70 0 c-54 0 -68 3 -63 13 5 6 51 72 103 146 398
567 815 1277 1113 1896 98 203 249 547 283 643 11 28 22 52 27 52 4 0 20 -18
34 -40z m3276 -225 c65 -116 331 -535 469 -740 378 -563 764 -1036 1239 -1517
l225 -228 -82 0 c-45 0 -85 4 -88 10 -3 5 0 7 8 4 8 -3 17 2 21 11 3 9 10 13
16 10 5 -3 10 -2 10 3 0 6 -7 13 -16 16 -8 3 -12 2 -9 -3 3 -5 0 -13 -6 -16
-7 -5 -10 2 -7 21 2 18 -2 29 -12 31 -13 4 -13 3 0 -6 12 -9 11 -11 -10 -12
-17 -1 -19 -3 -7 -6 9 -2 17 -9 17 -14 0 -6 -4 -8 -9 -5 -5 4 -11 1 -13 -6
-13 -39 -581 576 -884 958 -233 292 -680 954 -878 1297 l-56 98 1 107 c0 73 3
102 10 92 5 -8 33 -55 61 -105z m-11476 50 c-8 -18 -10 -41 -5 -57 4 -16 4
-28 1 -28 -4 0 -1 -4 6 -9 10 -6 8 -10 -8 -14 -20 -5 -22 -3 -16 23 3 16 1 32
-4 35 -6 4 -8 17 -6 31 4 19 0 24 -15 24 -13 0 -18 -4 -13 -12 4 -6 3 -8 -3
-5 -6 4 -8 19 -5 34 4 19 7 23 10 11 4 -22 22 -24 22 -2 0 8 5 12 10 9 6 -3
10 -1 10 5 0 7 5 6 14 -2 11 -11 12 -18 2 -43z m20354 7 c0 -5 -7 -9 -15 -9
-8 0 -12 4 -9 9 3 4 9 8 15 8 5 0 9 -4 9 -8z m-60 -12 c0 -5 -5 -10 -11 -10
-5 0 -7 5 -4 10 3 6 8 10 11 10 2 0 4 -4 4 -10z m90 6 c0 -2 -8 -10 -17 -17
-16 -13 -17 -12 -4 4 13 16 21 21 21 13z m-5 -116 c-3 -5 -11 -10 -16 -10 -6
0 -7 5 -4 10 3 6 11 10 16 10 6 0 7 -4 4 -10z m-98 -12 c0 -7 4 -22 8 -33 4
-13 4 -16 -2 -7 -5 6 -18 19 -29 28 -10 8 -14 13 -7 10 6 -4 14 -2 18 4 8 13
12 13 12 -2z m-20307 -27 c0 -5 12 -11 28 -13 26 -3 27 -3 6 -15 -19 -11 -24
-10 -38 12 -9 14 -12 25 -6 25 5 0 10 -4 10 -9z m20258 -20 c3 -8 0 -11 -7 -7
-6 4 -14 0 -17 -8 -8 -20 -24 -11 -24 13 0 22 41 24 48 2z m-20079 -103 c-1
-57 -4 -90 -8 -74 -6 29 -3 176 5 176 2 0 3 -46 3 -102z m20111 98 c0 -3 -4
-8 -10 -11 -5 -3 -10 -1 -10 4 0 6 5 11 10 11 6 0 10 -2 10 -4z m-93 -96 c-5
-67 -17 -76 -17 -13 0 44 5 63 17 63 2 0 2 -23 0 -50z m-20160 15 c0 -8 -4
-12 -9 -9 -5 3 -6 10 -3 15 9 13 12 11 12 -6z m20220 -30 c0 -8 -4 -15 -9 -15
-4 0 -8 7 -8 15 0 8 4 15 8 15 5 0 9 -7 9 -15z m-24 -25 c3 -11 2 -20 -3 -20
-4 0 -10 9 -13 20 -3 11 -2 20 3 20 4 0 10 -9 13 -20z m-20145 -12 c-2 -7 2
-12 9 -11 7 2 10 -4 6 -12 -5 -13 -7 -13 -19 2 -16 22 -18 33 -4 33 6 0 9 -6
8 -12z m55 -5 c-5 -12 -3 -14 7 -8 8 5 11 4 6 -3 -4 -6 -13 -9 -22 -5 -11 4
-12 9 -3 19 15 19 20 18 12 -3z m20049 -60 c-5 -76 -10 -83 -11 -15 0 34 2 62
7 62 4 0 6 -21 4 -47z m38 37 c0 -5 -2 -10 -4 -10 -3 0 -8 5 -11 10 -3 6 -1
10 4 10 6 0 11 -4 11 -10z m-20081 -26 c-13 -16 -29 -10 -29 11 0 8 7 11 20 8
16 -4 18 -8 9 -19z m-51 -35 c1 -18 -1 -29 -5 -25 -9 9 -13 67 -4 61 4 -2 8
-18 9 -36z m79 -26 c-3 -10 -5 -4 -5 12 0 17 2 24 5 18 2 -7 2 -21 0 -30z
m-30 -5 c-3 -7 -5 -2 -5 12 0 14 2 19 5 13 2 -7 2 -19 0 -25z m8110 -8 c33 0
46 -39 33 -93 -15 -59 -154 -468 -207 -612 -25 -66 -66 -181 -93 -255 -115
-324 -296 -771 -420 -1032 l-41 -88 -64 0 -64 0 40 88 c211 452 495 1179 677
1725 64 192 99 284 106 277 5 -5 20 -10 33 -10z m-8237 -5 c0 -8 -2 -15 -4
-15 -2 0 -6 7 -10 15 -3 8 -1 15 4 15 6 0 10 -7 10 -15z m130 -56 c0 -5 -4 -9
-8 -9 -5 0 -9 7 -9 15 0 8 4 12 9 9 4 -3 8 -9 8 -15z m20037 -36 c-3 -10 -5
-2 -5 17 0 19 2 27 5 18 2 -10 2 -26 0 -35z m64 24 c-10 -9 -11 -8 -5 6 3 10
9 15 12 12 3 -3 0 -11 -7 -18z m-20074 -44 c-3 -10 -5 -2 -5 17 0 19 2 27 5
18 2 -10 2 -26 0 -35z m-82 18 c-3 -6 -11 -11 -16 -11 -5 0 -4 6 3 14 14 16
24 13 13 -3z m20095 -105 c-7 -7 -10 4 -9 30 1 39 1 39 10 9 5 -18 5 -33 -1
-39z m-20013 32 c-3 -8 -6 -5 -6 6 -1 11 2 17 5 13 3 -3 4 -12 1 -19z m20010
-80 c-3 -7 -5 -2 -5 12 0 14 2 19 5 13 2 -7 2 -19 0 -25z m-20010 0 c-3 -8 -6
-5 -6 6 -1 11 2 17 5 13 3 -3 4 -12 1 -19z m11388 -178 c324 -613 659 -1166
969 -1597 l38 -53 -74 0 -73 0 -86 123 c-244 346 -609 958 -813 1361 -80 158
-84 174 -74 254 1 12 5 22 9 22 4 0 5 19 3 42 -2 23 -3 40 0 37 2 -2 47 -87
101 -189z m8630 151 c3 -5 1 -12 -5 -16 -5 -3 -10 1 -10 9 0 18 6 21 15 7z
m-20095 -35 c0 -3 -4 -8 -10 -11 -5 -3 -10 -1 -10 4 0 6 5 11 10 11 6 0 10 -2
10 -4z m20087 -18 c-3 -8 -6 -5 -6 6 -1 11 2 17 5 13 3 -3 4 -12 1 -19z
m-2007 -207 c0 -5 -9 -7 -20 -4 -11 3 -20 7 -20 9 0 2 9 4 20 4 11 0 20 -4 20
-9z m-9017 -25 c3 -8 0 -17 -7 -19 -10 -4 -12 1 -9 14 6 23 9 24 16 5z m8877
-10 c0 -3 -4 -8 -10 -11 -5 -3 -10 -1 -10 4 0 6 5 11 10 11 6 0 10 -2 10 -4z
m-76 -88 c-3 -4 -9 -8 -15 -8 -5 0 -9 4 -9 8 0 5 7 9 15 9 8 0 12 -4 9 -9z
m-7544 -28 c-18 -12 -30 -13 -30 -2 0 4 10 9 22 9 18 2 20 0 8 -7z m1154 -800
c58 -151 126 -324 151 -385 25 -60 55 -132 66 -158 l19 -48 -67 3 -67 3 -49
125 c-165 422 -231 652 -182 634 14 -6 17 -4 12 9 -3 9 -2 17 3 17 5 0 7 10 4
23 -25 128 -22 123 110 -223z m-1831 -34 c68 12 144 3 132 -16 -3 -6 -1 -10 4
-10 6 0 11 9 11 20 0 14 5 18 16 13 13 -5 13 -8 2 -15 -9 -6 1 -8 28 -5 35 4
43 1 63 -24 13 -16 27 -26 32 -23 5 3 9 0 9 -7 0 -6 8 -9 20 -6 15 4 20 0 20
-14 0 -17 11 -24 33 -20 4 0 7 -3 7 -9 0 -14 63 -13 78 2 6 6 14 10 16 7 9 -9
19 -329 10 -329 -5 0 -45 12 -89 27 -69 23 -97 27 -205 27 -147 0 -168 -6
-522 -152 l-213 -89 -3 113 c-2 96 0 116 15 134 10 11 23 20 30 20 13 0 17 12
14 38 -1 7 2 12 6 11 21 -4 31 3 37 24 3 13 17 29 30 37 14 7 24 18 23 24 -1
6 12 11 31 10 31 -1 32 0 15 18 -13 15 -14 18 -2 13 10 -4 20 4 29 20 7 14 27
34 44 45 21 13 26 20 14 20 -12 0 -15 5 -11 16 4 10 8 12 13 4 4 -6 15 -8 26
-3 17 6 17 5 5 -10 -12 -15 -12 -17 3 -11 9 3 16 12 16 20 0 8 7 14 15 14 9 0
27 12 40 26 14 15 25 22 25 15 0 -6 7 -11 15 -11 9 0 15 9 15 22 0 20 1 20 19
4 19 -17 19 -17 14 5 -4 15 -3 20 5 15 7 -4 13 -1 13 6 1 7 3 5 6 -5 4 -16 11
-17 46 -11z m-4773 -151 c293 -45 519 -136 730 -293 102 -76 169 -140 258
-247 149 -178 213 -296 415 -761 74 -170 216 -496 317 -724 100 -228 220 -503
267 -610 47 -107 142 -323 211 -480 69 -157 166 -379 217 -495 120 -273 135
-304 157 -311 25 -8 51 2 65 26 12 18 297 613 503 1050 48 102 154 325 235
495 81 171 161 340 177 377 17 38 35 65 41 61 7 -4 8 -130 3 -382 -7 -418 -5
-448 49 -557 41 -83 100 -143 200 -201 119 -69 693 -328 873 -393 34 -12 62
-25 62 -29 0 -16 -357 -783 -631 -1356 -141 -294 -229 -451 -251 -448 -7 1
-26 5 -42 9 -19 5 -27 3 -23 -4 7 -10 -22 -27 -31 -17 -3 3 0 5 6 5 7 0 12 4
12 10 0 16 -52 -9 -90 -43 l-34 -32 36 41 c100 115 163 228 328 584 233 503
276 598 248 559 -10 -14 -16 -13 -59 8 -27 12 -52 22 -56 21 -16 -3 -43 15
-43 28 0 8 -10 14 -24 14 -19 0 -28 -10 -46 -52 -51 -122 -211 -435 -237 -466
-24 -27 -39 -34 -108 -47 -186 -35 -242 -87 -384 -363 -80 -154 -109 -202
-123 -202 -11 0 -16 -5 -13 -10 4 -6 11 -8 16 -5 5 3 6 -1 2 -10 -4 -13 -8
-14 -14 -4 -4 8 -10 11 -12 9 -2 -3 -12 -16 -22 -30 -24 -35 -20 -24 95 230
221 490 288 611 355 643 20 10 91 33 157 51 66 19 127 40 134 48 8 7 36 62 63
123 l50 109 -19 32 c-11 17 -20 41 -20 52 0 15 -5 20 -15 16 -8 -4 -23 -3 -32
0 -15 6 -15 8 -3 17 12 8 9 10 -12 6 -16 -2 -25 0 -22 7 2 6 -8 12 -22 13 -15
0 -40 11 -57 24 -17 12 -36 22 -43 22 -7 0 -16 7 -18 14 -3 8 -10 11 -16 8 -5
-3 -10 1 -10 10 0 9 -4 14 -9 11 -5 -3 -14 1 -21 9 -7 8 -16 12 -21 9 -5 -3
-9 -1 -9 5 0 5 6 12 13 14 9 4 9 6 -1 6 -7 1 -27 -29 -44 -66 -89 -197 -292
-602 -332 -661 -56 -85 -180 -205 -264 -255 -124 -76 -294 -123 -480 -133
-299 -16 -561 98 -728 319 -54 72 -145 254 -307 622 -63 143 -202 454 -307
690 -106 237 -266 599 -355 805 -291 672 -495 1133 -546 1235 -141 284 -366
478 -644 555 -78 22 -98 23 -830 30 -894 9 -898 9 -865 20 14 4 18 8 9 9 -16
1 -23 31 -7 31 5 0 7 4 4 8 -5 9 593 21 1054 23 129 0 244 4 255 9 11 5 16 9
11 9 -5 1 -3 7 3 14 6 8 8 17 5 20 -4 4 2 5 13 2 18 -3 20 1 16 31 -3 23 -1
34 8 34 7 0 10 3 6 6 -3 4 4 15 16 25 18 16 19 18 4 13 -17 -6 -18 -5 -6 14 7
11 16 19 19 17 4 -2 7 2 7 9 0 18 -27 16 -28 -3 0 -11 -2 -12 -6 -3 -6 15 16
44 27 37 13 -8 22 46 10 60 -8 9 -7 17 2 26 16 17 22 49 9 49 -5 0 -12 -6 -14
-12 -4 -10 -6 -10 -6 0 -1 8 8 16 18 19 23 6 21 39 -3 37 -8 -1 -13 3 -10 8 3
5 12 7 20 4 8 -3 14 -1 14 4 0 5 30 11 68 13 37 2 -192 5 -508 6 -316 2 -687
7 -825 10 -240 6 -250 7 -253 26 -2 11 -10 25 -18 32 -10 7 -12 13 -4 18 5 3
8 11 4 16 -3 5 -10 6 -16 3 -7 -4 -8 -2 -4 4 5 8 -1 13 -16 14 -46 5 1346 15
1677 12 249 -2 368 -7 445 -19z m-1482 -341 c-3 -47 -4 -49 -35 -52 l-33 -3 0
55 c0 52 1 55 28 58 38 5 44 -3 40 -58z m187 1 l0 -50 -37 -3 -38 -3 0 56 0
56 38 -3 37 -3 0 -50z m163 -2 l3 -53 -35 0 -36 0 0 56 0 55 33 -3 c31 -3 32
-4 35 -55z m-528 0 c0 -25 -2 -44 -4 -42 -8 10 -13 89 -5 89 5 0 9 -21 9 -47z
m6975 -211 c654 -261 777 -326 805 -423 6 -18 10 -128 10 -243 0 -206 0 -210
-25 -252 -19 -32 -51 -60 -118 -104 -162 -107 -566 -295 -806 -376 -196 -66
-289 -58 -565 52 -197 78 -649 303 -717 357 -91 72 -94 85 -94 342 0 289 -2
286 211 386 234 109 809 350 865 362 13 3 60 4 104 2 74 -3 97 -10 330 -103z
m-2337 -99 l3 -53 -814 0 -814 0 -32 51 c-17 28 -31 52 -31 55 0 2 379 3 843
2 l842 -3 3 -52z m5542 45 c0 -7 -9 -32 -20 -55 l-19 -43 -723 -1 c-398 -1
-728 -1 -734 0 -6 1 -17 -11 -25 -25 -12 -24 -12 -28 9 -44 22 -18 31 -37 12
-25 -18 11 -11 -1 15 -25 l25 -23 9 24 c8 19 10 20 10 5 1 -12 6 -16 17 -12
10 4 13 2 8 -6 -5 -7 0 -9 15 -5 29 7 49 -27 24 -42 -13 -7 109 -11 397 -12
228 -1 429 -3 445 -5 17 -1 100 -3 185 -4 85 -2 149 -5 143 -7 -7 -3 -13 -9
-13 -15 0 -6 7 -7 16 -4 8 3 12 2 9 -4 -3 -6 5 -10 19 -10 28 0 32 -10 16 -40
-10 -19 -35 -20 -913 -21 -496 -1 -920 -2 -942 -3 l-40 -1 -6 190 c-4 105 -5
198 -2 208 4 16 62 17 1034 17 817 0 1029 -3 1029 -12z m-5665 -268 c-3 -5 0
-10 7 -10 22 -1 92 -11 106 -15 7 -3 12 -23 12 -55 l0 -50 -737 2 -738 3 -22
45 c-12 25 -20 46 -19 47 1 1 305 5 676 9 538 5 679 9 695 20 25 16 28 17 20
4z m-3590 -277 c195 -148 303 -273 404 -472 51 -101 329 -719 536 -1191 37
-85 115 -258 172 -385 176 -387 255 -572 231 -542 -17 20 -28 26 -41 21 -15
-5 -16 -9 -5 -16 9 -7 7 -8 -10 -5 -12 3 -20 1 -16 -4 3 -5 1 -9 -3 -9 -13 0
-14 -51 -2 -66 6 -7 9 -18 7 -25 -2 -6 -35 61 -73 148 -69 160 -98 224 -450
1008 -451 1005 -483 1072 -573 1191 -117 154 -256 270 -444 370 -57 30 -89 52
-73 48 47 -10 50 -10 47 4 -1 7 5 12 15 10 10 -2 17 2 16 10 -2 7 7 12 22 12
29 0 32 7 8 27 -56 45 157 -78 232 -134z m7217 -258 c-2 -15 0 -25 7 -25 7 0
9 5 5 12 -5 7 4 3 19 -9 16 -12 28 -25 29 -30 0 -4 5 -17 11 -28 6 -11 10 -23
9 -27 -1 -4 5 -5 12 -2 15 6 40 -29 29 -40 -4 -4 3 -13 15 -22 17 -12 21 -22
17 -45 -6 -30 9 -39 33 -19 9 7 9 7 3 -1 -7 -8 -4 -23 7 -43 9 -17 16 -33 17
-36 1 -15 18 -29 27 -24 6 4 6 -2 -1 -15 -10 -18 -9 -21 10 -21 12 0 19 -3 16
-7 -4 -3 -2 -12 3 -19 6 -6 10 -16 9 -20 -3 -20 2 -32 14 -30 6 0 12 -3 12 -9
0 -5 -6 -9 -12 -9 -9 1 -10 -3 -3 -16 5 -9 7 -20 4 -23 -3 -3 0 -15 6 -27 11
-20 10 -21 -10 -10 -19 10 -20 9 -11 -7 5 -10 13 -27 16 -38 7 -20 7 -20 14
-1 7 17 8 18 14 3 3 -9 2 -17 -3 -17 -6 0 -10 -8 -10 -17 -1 -17 -1 -17 -11 0
-14 25 -32 11 -18 -14 8 -16 7 -25 -6 -39 -9 -10 -12 -21 -7 -24 5 -3 7 -19 4
-35 -2 -17 -9 -28 -14 -25 -5 3 -7 12 -4 20 3 8 0 11 -9 7 -11 -4 -12 -10 -4
-24 7 -15 7 -19 -3 -17 -7 2 -12 -4 -10 -14 1 -9 -3 -20 -10 -24 -7 -4 -10 -4
-6 1 4 4 1 13 -7 19 -8 6 -66 119 -128 251 -100 210 -114 245 -110 280 3 22 7
83 9 135 5 115 12 162 23 156 5 -3 6 -17 3 -31z m-6272 -270 c47 -94 136 -285
199 -425 62 -140 130 -291 151 -335 20 -44 44 -111 54 -150 9 -38 32 -103 51
-144 20 -41 33 -76 30 -79 -3 -3 -5 0 -5 7 0 7 -4 10 -9 7 -10 -7 -100 164
-134 254 -13 36 -102 236 -197 445 -211 464 -260 575 -260 587 0 5 8 8 18 6
11 -2 46 -62 102 -173z m-315 132 c20 -28 19 -37 -4 -37 -21 0 -74 46 -67 59
9 14 56 0 71 -22z m54 -109 c141 -306 328 -729 523 -1183 50 -115 92 -211 93
-213 4 -5 136 151 143 168 10 27 135 161 143 153 3 -5 14 -28 23 -53 l17 -46
-86 -269 c-114 -358 -119 -370 -130 -370 -25 0 -10 74 75 355 50 166 90 304
88 305 -8 8 -170 -159 -219 -224 -29 -39 -58 -71 -66 -71 -21 0 -39 37 -175
352 -71 167 -165 384 -208 483 -299 690 -292 675 -266 675 9 0 27 -24 45 -62z
m6176 -396 c-10 -39 -75 -101 -169 -159 -163 -101 -563 -286 -788 -364 -81
-28 -106 -33 -193 -33 -90 0 -111 4 -209 38 -237 82 -678 287 -828 386 -126
83 -122 74 -126 348 -2 127 -1 232 2 232 3 0 27 -16 52 -36 128 -97 403 -236
711 -358 387 -154 406 -154 773 -9 285 113 566 256 710 361 l65 48 3 -215 c1
-119 0 -226 -3 -239z m3 -419 c-3 -300 0 -290 -118 -368 -113 -75 -617 -308
-824 -381 -127 -45 -246 -55 -345 -29 -176 46 -818 340 -945 433 -81 60 -86
77 -86 356 l0 238 23 -16 c188 -136 643 -351 977 -462 110 -36 211 -38 320 -5
288 88 896 385 969 474 7 9 18 17 23 17 5 0 8 -104 6 -257z m3330 48 c9 -20
17 -37 18 -39 1 -1 29 -7 62 -13 33 -6 69 -17 79 -24 16 -12 13 -14 -22 -24
-22 -6 -51 -11 -64 -11 -14 0 -51 -5 -82 -12 -44 -9 -67 -9 -96 0 -21 6 -65
19 -98 28 l-60 16 23 18 c12 10 47 22 78 26 48 6 57 10 65 33 22 59 71 60 97
2z m-9230 -188 c-4 -22 -38 -30 -49 -12 -9 15 7 29 34 29 12 0 17 -6 15 -17z
m9092 -258 c86 -44 74 -193 -18 -220 -17 -5 -32 -13 -32 -18 0 -5 -6 -4 -14 2
-10 8 -16 8 -23 -1 -6 -7 -122 -269 -258 -583 -272 -626 -336 -768 -354 -779
-6 -4 -45 -10 -86 -13 l-75 -6 2 26 c2 24 7 26 66 33 l63 6 25 52 c41 87 531
1239 543 1278 10 29 9 46 0 77 -32 108 65 195 161 146z m-1330 -95 c0 -5 -4
-10 -9 -10 -6 0 -13 5 -16 10 -3 6 1 10 9 10 9 0 16 -4 16 -10z m857 -352 c-3
-8 -6 -5 -6 6 -1 11 2 17 5 13 3 -3 4 -12 1 -19z m-7693 -59 c-4 -22 -29 -80
-55 -127 -27 -48 -49 -92 -49 -99 0 -6 50 -55 110 -108 123 -107 135 -123 144
-180 6 -33 3 -42 -13 -52 -18 -11 -22 -7 -49 51 -26 54 -45 77 -138 157 -60
51 -110 100 -112 108 -4 25 145 291 163 291 3 0 2 -18 -1 -41z m8227 -386
c-12 -20 -14 -14 -5 12 4 9 9 14 11 11 3 -2 0 -13 -6 -23z m-8831 -43 c0 -5
-2 -10 -4 -10 -3 0 -8 5 -11 10 -3 6 -1 10 4 10 6 0 11 -4 11 -10z m104 -16
c3 -8 2 -12 -4 -9 -6 3 -10 10 -10 16 0 14 7 11 14 -7z m33 -91 c-11 -10 -26
8 -20 23 5 15 7 14 15 -1 6 -9 7 -19 5 -22z m-108 -28 c0 -5 -6 1 -14 15 -8
14 -14 30 -14 35 0 6 6 -1 14 -15 8 -14 14 -29 14 -35z m524 5 c48 -38 53 -93
17 -171 -10 -21 -8 -34 15 -85 15 -32 40 -92 55 -133 25 -62 27 -75 15 -87 -7
-8 -18 -14 -23 -14 -9 0 -39 64 -110 230 -17 40 -24 46 -66 58 -54 14 -86 56
-86 110 0 40 25 86 54 101 36 17 101 13 129 -9z m-395 -15 c-3 -3 -9 2 -12 12
-6 14 -5 15 5 6 7 -7 10 -15 7 -18z m77 -183 c-3 -3 -5 0 -5 6 0 7 -10 22 -22
34 -12 12 -22 33 -23 47 -1 14 -5 35 -9 46 -4 11 9 -13 29 -54 19 -41 33 -76
30 -79z m-165 103 c0 -5 -5 -3 -10 5 -5 8 -10 20 -10 25 0 6 5 3 10 -5 5 -8
10 -19 10 -25z m229 -230 c1 -15 -46 70 -53 97 -4 13 7 -2 23 -32 17 -30 30
-59 30 -65z m2235 -773 c3 -5 -1 -9 -9 -9 -8 0 -12 4 -9 9 3 4 7 8 9 8 2 0 6
-4 9 -8z m786 -252 c0 -5 -4 -10 -10 -10 -5 0 -10 5 -10 10 0 6 5 10 10 10 6
0 10 -4 10 -10z m-1203 -42 c12 -6 30 -27 39 -46 13 -28 14 -42 5 -72 -14 -48
-40 -70 -89 -77 -49 -7 -93 17 -118 62 -21 40 -14 74 26 114 40 40 82 45 137
19z m1201 -8 c-22 -30 -35 -41 -22 -17 9 16 36 47 41 47 2 0 -6 -13 -19 -30z
m-722 -39 c0 -11 -5 -17 -11 -13 -5 3 -5 -1 1 -9 16 -19 1 -55 -25 -62 -26 -7
-26 2 1 58 24 49 34 56 34 26z m2786 -1147 c61 -20 139 -90 169 -151 36 -75
32 -172 -10 -258 -58 -117 -158 -171 -305 -163 -167 9 -281 116 -294 275 -6
80 10 137 56 198 84 109 232 147 384 99z m-1565 -795 c519 -58 853 -455 853
-1014 0 -364 -135 -655 -390 -844 -177 -132 -381 -190 -624 -178 -67 3 -150
13 -186 23 -89 22 -212 82 -288 138 -34 25 -64 46 -67 46 -3 0 -5 -198 -5
-440 l0 -440 -260 0 -260 0 0 1340 0 1340 243 -2 242 -3 3 -110 c1 -60 6 -105
10 -99 4 6 32 33 62 58 119 102 277 168 445 186 104 11 117 11 222 -1z m3489
-15 c94 -19 204 -63 298 -118 84 -50 215 -170 266 -245 304 -449 233 -1116
-154 -1442 -85 -72 -256 -160 -371 -191 -111 -29 -385 -32 -490 -5 -91 24
-214 85 -295 146 l-65 49 -3 -444 -2 -444 -260 0 -260 0 0 1340 0 1340 245 0
245 0 0 -112 c1 -78 4 -108 10 -96 18 30 135 116 206 151 101 50 191 75 324
91 62 7 225 -3 306 -20z m2221 1 c438 -83 726 -397 782 -855 6 -46 11 -133 11
-192 l0 -108 -760 0 -760 0 0 -21 c0 -12 16 -56 36 -98 27 -56 56 -95 108
-146 120 -120 250 -168 446 -167 185 1 313 44 453 151 l66 51 21 -28 c12 -15
77 -86 146 -158 l124 -132 -44 -40 c-224 -207 -486 -293 -841 -278 -223 9
-350 39 -516 122 -359 179 -563 572 -520 1003 27 261 128 473 309 642 136 127
321 219 511 253 105 19 329 20 428 1z m-9767 -690 c124 -371 228 -671 231
-667 4 4 37 102 74 217 36 116 134 416 216 668 l150 457 238 0 238 0 61 -177
c157 -457 392 -1155 392 -1164 0 -21 18 -7 25 19 3 15 101 318 217 675 l212
647 253 0 c139 0 253 -2 253 -3 0 -4 -278 -807 -460 -1327 -43 -124 -111 -321
-151 -438 l-73 -212 -264 2 -264 3 -114 325 c-63 179 -162 466 -221 638 l-106
314 -22 -59 c-12 -32 -109 -320 -216 -641 l-194 -582 -264 2 -264 3 -142 400
c-78 220 -183 517 -233 660 -76 219 -304 862 -319 903 -4 9 52 12 259 12 l264
0 224 -675z m5760 -315 l0 -990 -260 0 -260 0 0 990 0 990 260 0 260 0 0 -990z"/>
<path d="M14666 19065 c-35 -35 0 -93 48 -81 29 7 45 49 29 75 -14 22 -57 25
-77 6z"/>
<path d="M14723 19529 c-12 -4 -25 -20 -29 -34 -13 -53 59 -88 90 -44 28 40
-16 96 -61 78z"/>
<path d="M11291 19232 c-21 -40 12 -82 53 -66 22 8 31 50 16 69 -17 21 -57 19
-69 -3z"/>
<path d="M13170 18771 c-15 -28 -12 -46 8 -64 24 -22 45 -21 65 1 20 22 22 53
5 70 -19 19 -66 15 -78 -7z"/>
<path d="M15606 18674 c-23 -23 -20 -30 4 -9 11 10 20 20 20 22 0 7 -9 2 -24
-13z"/>
<path d="M14761 18496 c-16 -19 -10 -66 10 -79 26 -16 68 0 75 29 12 47 -55
87 -85 50z"/>
<path d="M10245 18260 c-16 -7 -17 -9 -3 -9 9 -1 20 4 23 9 7 11 7 11 -20 0z"/>
<path d="M10290 18240 c0 -5 5 -10 10 -10 6 0 10 5 10 10 0 6 -4 10 -10 10 -5
0 -10 -4 -10 -10z"/>
<path d="M10221 18224 c0 -11 3 -14 6 -6 3 7 2 16 -1 19 -3 4 -6 -2 -5 -13z"/>
<path d="M10264 18221 c0 -11 5 -17 13 -14 10 4 11 9 2 19 -15 18 -15 18 -15
-5z"/>
<path d="M10300 18210 c0 -5 5 -10 10 -10 6 0 10 5 10 10 0 6 -4 10 -10 10 -5
0 -10 -4 -10 -10z"/>
<path d="M10280 18145 c0 -8 4 -15 10 -15 5 0 7 7 4 15 -4 8 -8 15 -10 15 -2
0 -4 -7 -4 -15z"/>
<path d="M13802 18168 c-26 -26 -3 -88 31 -88 22 0 57 31 57 50 0 40 -60 66
-88 38z"/>
<path d="M10641 15615 c-19 -106 -32 -227 -26 -233 3 -3 5 2 5 10 0 9 10 22
21 30 17 11 22 25 23 59 1 24 6 51 11 59 14 23 14 52 -1 46 -7 -3 -16 0 -20 6
-4 7 -3 8 4 4 7 -4 12 -1 12 8 0 8 -4 17 -9 20 -4 3 -6 17 -3 31 2 14 2 25 -1
25 -3 0 -10 -29 -16 -65z"/>
<path d="M18120 13784 c0 -8 5 -12 10 -9 6 4 8 11 5 16 -9 14 -15 11 -15 -7z"/>
<path d="M17437 13758 c25 -27 29 -38 23 -60 -4 -15 -6 -29 -3 -32 3 -3 -10
-9 -28 -15 -29 -8 -21 -9 51 -10 l84 -1 -74 75 c-74 74 -112 105 -53 43z"/>
<path d="M18150 13770 c-9 -6 -10 -10 -3 -10 6 0 15 5 18 10 8 12 4 12 -15 0z"/>
<path d="M14386 8973 c-6 -14 -5 -15 5 -6 7 7 10 15 7 18 -3 3 -9 -2 -12 -12z"/>
<path d="M11000 7470 c0 -6 7 -10 15 -10 8 0 15 2 15 4 0 2 -7 6 -15 10 -8 3
-15 1 -15 -4z"/>
<path d="M11085 7470 c3 -5 8 -10 11 -10 2 0 4 5 4 10 0 6 -5 10 -11 10 -5 0
-7 -4 -4 -10z"/>
<path d="M6900 12405 c0 -8 -4 -15 -8 -15 -5 0 -23 -23 -41 -50 -31 -47 -35
-80 -11 -80 13 0 13 13 0 26 -7 7 -6 11 4 11 8 0 13 -4 11 -8 -6 -9 21 -20 29
-12 3 4 6 11 6 17 0 6 -5 4 -10 -4 -8 -13 -10 -13 -10 1 0 16 26 34 43 31 4
-1 6 2 5 7 -2 5 6 17 17 26 16 13 16 16 3 11 -12 -3 -15 -1 -11 10 3 7 0 14
-6 14 -6 0 -11 5 -11 11 0 5 5 7 10 4 6 -3 10 -1 10 4 0 6 -7 11 -15 11 -8 0
-15 -7 -15 -15z"/>
<path d="M60 14781 c0 -5 5 -13 10 -16 6 -3 10 -2 10 4 0 5 -4 13 -10 16 -5 3
-10 2 -10 -4z"/>
<path d="M7636 12442 c-4 -4 -13 -7 -19 -7 -7 0 -26 -27 -44 -60 -34 -62 -42
-88 -21 -67 16 16 28 15 28 -3 0 -8 7 -15 16 -15 10 0 14 5 10 16 -3 8 -2 13
3 10 8 -5 17 11 47 81 11 26 11 33 0 42 -7 6 -16 7 -20 3z"/>
<path d="M9800 12769 c0 -5 5 -7 10 -4 6 3 10 8 10 11 0 2 -4 4 -10 4 -5 0
-10 -5 -10 -11z"/>
<path d="M9523 12658 c-13 -6 -23 -18 -23 -26 0 -14 2 -14 13 -1 6 8 19 20 27
27 17 14 13 14 -17 0z"/>
<path d="M6276 9607 c3 -10 9 -15 12 -12 3 3 0 11 -7 18 -10 9 -11 8 -5 -6z"/>
<path d="M6290 9577 c0 -2 30 -71 66 -153 78 -177 251 -573 336 -769 114 -265
195 -433 241 -502 97 -146 239 -252 407 -305 66 -20 95 -23 235 -23 136 0 172
4 240 23 113 33 212 83 298 151 129 103 203 221 361 579 75 169 86 212 43 175
-11 -10 -17 -12 -13 -5 9 15 -12 45 -25 36 -5 -3 -9 2 -9 10 0 9 -8 16 -18 16
-10 0 -27 7 -38 16 -10 8 -13 12 -5 8 9 -4 12 -3 8 4 -4 5 -16 8 -27 5 -18 -5
-22 1 -19 24 1 7 -31 27 -35 21 -2 -1 -53 -104 -114 -228 -79 -160 -130 -250
-177 -313 -74 -97 -100 -119 -132 -111 -20 6 -17 11 39 77 68 82 123 171 183
302 64 135 146 337 140 343 -3 3 -5 -1 -5 -8 0 -7 -3 -10 -7 -6 -5 4 -8 11 -8
15 0 4 -8 15 -17 25 -10 10 -18 15 -18 11 0 -3 -11 2 -26 11 -14 9 -39 17 -57
16 -17 0 -39 6 -49 15 -9 8 -22 12 -29 7 -7 -4 -10 -3 -5 4 3 6 -6 23 -21 39
l-28 28 -130 -260 c-147 -294 -156 -305 -251 -305 -29 0 -64 5 -78 11 -33 16
-72 92 -244 479 -188 423 -182 413 -198 392 -8 -9 -14 -12 -14 -6 0 5 -11 10
-25 10 -18 0 -24 -4 -20 -14 3 -8 -6 -6 -24 7 l-28 20 -23 -21 c-22 -21 -23
-21 -37 -2 -8 10 -17 18 -21 16 -3 -2 -9 5 -13 15 -7 16 -8 16 -8 1 -1 -15 -5
-16 -27 -8 -16 7 -32 7 -44 0 -11 -6 -20 -6 -22 -1 -2 5 -10 11 -18 13 -8 2
-21 10 -28 18 -10 11 -12 12 -6 1 5 -10 3 -13 -9 -8 -9 3 -18 0 -21 -9 -4 -12
-10 -12 -26 -4 -11 6 -20 8 -20 4 0 -3 -7 -1 -15 6 -8 7 -22 10 -30 6 -8 -3
-15 -1 -15 5 0 6 -9 8 -21 4 -13 -4 -28 0 -42 12 -21 18 -21 18 -7 -1 9 -12
10 -17 3 -12 -7 4 -21 9 -30 11 -10 2 -22 4 -28 6 -5 1 -26 -1 -46 -5 -23 -5
-45 -4 -58 3 -17 10 -21 9 -21 -4 0 -9 -5 -13 -10 -10 -6 4 -8 11 -5 16 4 5 2
9 -3 9 -5 0 -15 14 -22 30 -11 26 -30 50 -30 37z"/>
<path d="M8810 8220 c-114 -24 -132 -32 -168 -76 -27 -33 -122 -210 -122 -228
0 -4 21 11 47 33 45 40 66 49 219 90 37 10 45 18 77 79 49 93 60 122 44 121
-6 0 -50 -9 -97 -19z"/>
<path d="M10560 11010 c0 -5 -9 -10 -19 -10 -15 0 -18 -5 -13 -22 3 -14 1 -19
-6 -14 -6 3 -16 -3 -22 -15 -7 -13 -8 -19 -2 -15 6 3 14 1 18 -5 4 -7 3 -9 -3
-6 -5 4 -20 -5 -31 -18 -12 -14 -20 -25 -17 -25 9 0 190 82 199 90 5 5 -8 3
-29 -4 -33 -12 -40 -11 -57 3 -16 14 -17 17 -3 27 8 6 12 14 8 17 -10 10 -23
8 -23 -3z"/>
<path d="M11993 11913 c9 -2 23 -2 30 0 6 3 -1 5 -18 5 -16 0 -22 -2 -12 -5z"/>
<path d="M11985 11890 c3 -5 8 -10 11 -10 2 0 4 5 4 10 0 6 -5 10 -11 10 -5 0
-7 -4 -4 -10z"/>
<path d="M12108 11743 c7 -3 16 -2 19 1 4 3 -2 6 -13 5 -11 0 -14 -3 -6 -6z"/>
<path d="M11610 11101 c0 -6 4 -13 10 -16 6 -3 7 1 4 9 -7 18 -14 21 -14 7z"/>
<path d="M10610 10643 c-125 -55 -155 -71 -112 -60 15 3 20 2 15 -6 -4 -7 -9
-21 -10 -32 -2 -10 -15 -43 -29 -73 -14 -30 -23 -63 -21 -73 3 -11 1 -17 -4
-13 -5 3 -9 2 -10 -3 0 -4 -2 -24 -4 -43 -1 -19 -8 -50 -13 -67 -6 -18 -7 -33
-2 -33 24 0 356 159 334 160 -15 0 -24 49 -12 56 6 4 5 10 -3 15 -11 7 -11 9
-1 9 9 0 12 18 10 64 -1 41 -6 62 -13 58 -5 -3 -4 2 4 12 12 14 12 19 1 26 -7
5 -11 18 -8 34 3 14 5 26 4 25 0 0 -57 -25 -126 -56z"/>
<path d="M10700 10072 c-58 -27 -167 -75 -243 -107 -76 -32 -134 -61 -129 -64
5 -3 8 -15 7 -26 -3 -28 -14 -96 -21 -125 -3 -14 -7 -47 -10 -75 -8 -82 -10
-90 -18 -103 -4 -6 -4 -12 -1 -12 3 0 104 43 223 96 234 104 423 197 381 188
-23 -5 -27 -2 -27 18 0 13 -6 37 -13 53 -6 17 -13 35 -15 40 -25 104 -33 148
-28 156 8 13 10 14 -106 -39z"/>
<path d="M6026 8654 c-24 -23 -20 -70 6 -88 31 -22 54 -20 72 6 21 30 20 54
-4 78 -24 24 -53 26 -74 4z"/>
<path d="M7598 7244 c-10 -21 -9 -31 3 -52 19 -34 42 -39 68 -13 40 40 22 91
-31 91 -21 0 -32 -7 -40 -26z"/>
<path d="M8146 7211 c-4 -7 -5 -15 -2 -18 9 -9 19 4 14 18 -4 11 -6 11 -12 0z"/>
<path d="M9039 4856 c-218 -77 -352 -288 -352 -551 1 -153 33 -262 109 -365
110 -149 294 -225 490 -200 202 26 369 183 420 396 22 93 23 260 1 344 -49
188 -169 324 -334 379 -91 30 -244 29 -334 -3z"/>
<path d="M12520 4879 c-211 -24 -385 -182 -438 -399 -50 -206 2 -448 125 -576
166 -174 399 -219 612 -119 179 85 291 284 291 516 0 376 -246 617 -590 578z"/>
<path d="M14742 4900 c-147 -39 -256 -128 -322 -265 -21 -44 -42 -95 -45 -112
l-7 -33 516 0 c406 0 516 3 516 13 0 24 -29 105 -55 158 -37 72 -136 169 -208
203 -121 57 -266 70 -395 36z"/>
<path d="M20345 15439 c-4 -6 -5 -12 -2 -15 2 -3 7 2 10 11 7 17 1 20 -8 4z"/>
<path d="M20457 15319 c7 -7 15 -10 18 -7 3 3 -2 9 -12 12 -14 6 -15 5 -6 -5z"/>
<path d="M20396 15296 c6 -15 4 -17 -6 -11 -9 6 -11 4 -5 -4 5 -9 10 -10 18
-2 8 8 7 14 -2 24 -10 10 -11 8 -5 -7z"/>
<path d="M43 15265 c0 -8 4 -12 9 -9 5 3 6 10 3 15 -9 13 -12 11 -12 -6z"/>
<path d="M36 15213 c-4 -9 -4 -14 0 -10 4 4 14 1 23 -6 14 -11 15 -10 1 8 -8
11 -15 21 -16 23 -1 2 -5 -5 -8 -15z"/>
<path d="M20388 15200 c14 -17 16 -34 2 -25 -5 3 -10 1 -10 -4 0 -19 19 -12
31 12 6 12 8 19 4 15 -5 -4 -15 -2 -24 4 -13 10 -14 10 -3 -2z"/>
<path d="M76 15162 c-3 -4 4 -9 15 -9 23 -2 25 3 4 10 -8 4 -16 3 -19 -1z"/>
<path d="M34 15142 c-14 -10 -13 -60 1 -66 14 -5 15 11 2 31 -4 6 -2 15 4 19
7 4 9 3 6 -3 -4 -6 3 -19 15 -29 21 -19 21 -19 10 2 -7 13 -8 25 -1 32 5 7 6
10 3 7 -4 -3 -12 -1 -18 5 -7 5 -16 6 -22 2z"/>
<path d="M20384 15083 c2 -10 6 -17 10 -16 15 3 16 11 2 22 -12 10 -14 9 -12
-6z"/>
<path d="M20421 15054 c0 -11 3 -14 6 -6 3 7 2 16 -1 19 -3 4 -6 -2 -5 -13z"/>
<path d="M56 15015 c-17 -38 -16 -50 1 -33 8 9 13 24 11 34 -3 18 -4 18 -12
-1z"/>
<path d="M92 15003 c-9 -8 -9 -13 -2 -13 6 0 8 -5 4 -12 -5 -7 -3 -8 5 -4 7 5
10 10 7 14 -3 3 2 10 10 17 13 9 14 12 2 12 -7 0 -19 -6 -26 -14z"/>
<path d="M2 14917 c-1 -57 2 -84 7 -72 5 11 7 28 5 38 -2 10 1 15 7 12 5 -4 7
-11 4 -16 -4 -5 -1 -9 5 -9 17 0 23 29 9 46 -7 8 -8 14 -3 13 27 -5 33 2 17
20 -9 11 -21 17 -26 14 -6 -3 -7 -1 -3 6 4 6 1 18 -7 26 -13 12 -15 2 -15 -78z
m15 1 c-3 -7 -5 -2 -5 12 0 14 2 19 5 13 2 -7 2 -19 0 -25z"/>
<path d="M20421 14994 c0 -11 3 -14 6 -6 3 7 2 16 -1 19 -3 4 -6 -2 -5 -13z"/>
<path d="M170 14980 c-8 -5 -12 -11 -9 -14 2 -3 11 -1 19 4 8 5 12 11 9 14 -2
3 -11 1 -19 -4z"/>
<path d="M20420 14949 c0 -9 31 -21 38 -14 3 3 -1 5 -9 5 -12 0 -11 2 1 10 12
7 10 9 -8 7 -12 0 -22 -4 -22 -8z"/>
<path d="M90 14920 c-13 -8 -12 -10 3 -10 9 0 17 5 17 10 0 12 -1 12 -20 0z"/>
<path d="M170 14885 c0 -8 5 -15 11 -15 5 0 8 4 5 9 -4 5 0 12 6 14 8 3 6 6
-4 6 -10 1 -18 -6 -18 -14z"/>
<path d="M200 14870 c0 -5 5 -10 10 -10 6 0 10 5 10 10 0 6 -4 10 -10 10 -5 0
-10 -4 -10 -10z"/>
<path d="M180 14831 c0 -11 19 -24 38 -27 6 -1 12 2 12 8 0 6 -7 8 -15 4 -9
-3 -15 0 -15 9 0 8 -4 15 -10 15 -5 0 -10 -4 -10 -9z"/>
<path d="M20285 14812 c-3 -7 -5 -22 -5 -32 0 -10 -8 -20 -17 -22 -15 -3 -15
-6 5 -17 13 -7 32 -14 44 -16 16 -3 18 -2 8 10 -6 8 -9 19 -6 24 4 5 1 13 -5
17 -7 4 -9 3 -6 -2 3 -6 2 -16 -4 -24 -7 -12 -9 -10 -9 8 0 40 35 59 70 37 13
-7 13 -6 2 7 -8 10 -20 14 -29 11 -9 -4 -14 -2 -10 3 3 5 -3 10 -13 10 -11 0
-22 -6 -25 -14z"/>
<path d="M149 14773 c-10 -11 -10 -14 -1 -9 6 4 12 2 12 -3 0 -6 5 -11 11 -11
8 0 9 4 0 13 -6 8 -8 17 -4 20 3 4 4 7 1 7 -3 0 -12 -8 -19 -17z"/>
<path d="M20328 14783 c7 -3 16 -2 19 1 4 3 -2 6 -13 5 -11 0 -14 -3 -6 -6z"/>
<path d="M203 14734 c-3 -10 -13 -14 -25 -11 -14 4 -18 1 -15 -11 2 -9 10 -16
18 -14 10 2 9 -2 -3 -11 -10 -8 -18 -23 -18 -34 0 -10 -6 -25 -12 -32 -10 -11
-10 -13 0 -7 9 5 12 -4 12 -34 0 -23 -4 -39 -9 -35 -5 3 -12 1 -15 -4 -12 -19
13 -21 43 -4 31 18 43 40 17 30 -16 -6 -30 19 -16 28 5 3 7 14 5 25 -3 14 2
20 13 20 12 1 10 5 -8 15 -22 12 -23 14 -7 20 9 4 17 15 17 25 0 10 7 26 16
34 8 9 10 16 4 16 -6 0 -13 -7 -17 -16z"/>
<path d="M20261 14714 c0 -11 3 -14 6 -6 3 7 2 16 -1 19 -3 4 -6 -2 -5 -13z"/>
<path d="M221 14684 c0 -11 3 -14 6 -6 3 7 2 16 -1 19 -3 4 -6 -2 -5 -13z"/>
<path d="M120 14666 c0 -2 7 -9 15 -16 9 -7 15 -8 15 -2 0 5 -7 12 -15 16 -8
3 -15 4 -15 2z"/>
<path d="M135 14570 c3 -5 8 -10 11 -10 2 0 4 5 4 10 0 6 -5 10 -11 10 -5 0
-7 -4 -4 -10z"/>
</g>
</svg>
